<svg width="583" height="440" viewBox="0 0 583 440" fill="none" xmlns="http://www.w3.org/2000/svg">
<g clip-path="url(#clip0_64_28)">
<path d="M297.75 439.067C315.285 439.067 329.499 423.844 329.499 405.066C329.499 386.287 315.285 371.064 297.75 371.064C280.215 371.064 266 386.287 266 405.066C266 423.844 280.215 439.067 297.75 439.067Z" fill="#267D0D"/>
<path d="M487.423 437.157C505.185 431.444 524.069 425.487 538.155 411.906C550.743 399.77 559.241 381.239 554.026 363.039C548.822 344.876 533.234 332.765 517.141 326.741C508.013 323.325 498.463 321.43 488.917 319.941C478.54 318.322 468.117 316.996 457.699 315.72C415.515 310.553 373.172 307.396 330.671 306.25C309.699 305.685 288.731 305.698 267.757 306.025C249.025 306.316 229.297 306.308 211.92 297.782C198.407 291.152 186.142 279.09 182.377 263.238C178.03 244.94 186.047 226.307 197.547 213.055C203.609 206.069 210.694 200.19 218.002 194.784C225.931 188.919 234.136 183.47 242.519 178.383C259.03 168.37 276.291 159.847 294.123 152.905C302.921 149.48 311.848 146.524 320.853 143.798C328.457 141.495 336.085 139.19 343.434 136.053C357.641 129.989 371.154 119.717 374.766 102.878C378.189 86.9181 372.417 69.5925 362.297 57.7363C350.589 44.0195 332.936 38.0065 316.012 37.0336C297.012 35.9413 278.449 41.034 260.591 47.4972C241.543 54.3907 222.906 62.317 203.457 67.9007C184.169 73.4322 164.509 77.346 144.654 79.6066C134.934 80.715 124.921 81.9665 115.143 81.118C106.949 80.4068 98.7964 77.8259 92.7572 71.5977C87.5789 66.2574 84.4942 58.918 85.5547 51.1727C85.7473 49.7659 87.7428 50.364 87.5514 51.7622C86.2604 61.1904 92.2447 69.8783 99.619 74.3286C108.142 79.4719 118.513 79.479 128.002 78.8907C148.576 77.5599 169.011 74.3963 189.095 69.4326C208.83 64.6054 227.859 57.7046 246.868 50.3331C264.921 43.332 283.377 36.4989 302.664 34.9825C319.399 33.6667 337.003 36.2777 351.582 45.6437C364.395 53.8751 373.817 67.6024 376.819 83.3548C379.753 98.7477 375.69 114.241 364.809 124.983C353.544 136.105 338.098 140.86 323.703 145.239C305.446 150.793 287.58 157.286 270.286 165.716C252.757 174.237 235.946 184.359 220.039 195.969C204.685 207.206 189.532 221.345 184.675 241.392C182.413 250.73 182.831 260.634 186.616 269.454C189.981 277.297 195.524 283.894 201.981 288.982C217.387 301.122 236.804 303.615 255.413 303.863C276.313 304.142 297.214 303.386 318.122 303.754C360.73 304.503 403.251 307.28 445.685 312.086C456.317 313.291 466.937 314.624 477.543 316.083C487.083 317.396 496.654 318.7 506.033 321.031C522.71 325.177 538.938 333.148 549.304 348.291C553.904 354.854 556.754 362.633 557.55 370.795C558.275 379.313 556.328 387.847 552.732 395.425C544.772 412.197 529.863 422.865 514.03 429.874C505.549 433.628 496.753 436.472 487.973 439.295C486.694 439.707 486.148 437.567 487.423 437.157Z" fill="#F2F2F2"/>
<path d="M86.8921 69.1125C96.0407 69.1125 103.457 61.17 103.457 51.3724C103.457 41.5748 96.0407 33.6323 86.8921 33.6323C77.7435 33.6323 70.3271 41.5748 70.3271 51.3724C70.3271 61.17 77.7435 69.1125 86.8921 69.1125Z" fill="#F2F2F2"/>
<path d="M201.811 102.745C210.96 102.745 218.376 94.8023 218.376 85.0047C218.376 75.2072 210.96 67.2646 201.811 67.2646C192.662 67.2646 185.246 75.2072 185.246 85.0047C185.246 94.8023 192.662 102.745 201.811 102.745Z" fill="#F2F2F2"/>
<path d="M299.13 35.4802C308.279 35.4802 315.695 27.5377 315.695 17.7401C315.695 7.94251 308.279 0 299.13 0C289.982 0 282.565 7.94251 282.565 17.7401C282.565 27.5377 289.982 35.4802 299.13 35.4802Z" fill="#F2F2F2"/>
<path d="M359.869 110.876C369.017 110.876 376.434 102.933 376.434 93.1356C376.434 83.338 369.017 75.3955 359.869 75.3955C350.72 75.3955 343.304 83.338 343.304 93.1356C343.304 102.933 350.72 110.876 359.869 110.876Z" fill="#F2F2F2"/>
<path d="M277.734 198.098C286.882 198.098 294.299 190.155 294.299 180.358C294.299 170.56 286.882 162.618 277.734 162.618C268.585 162.618 261.169 170.56 261.169 180.358C261.169 190.155 268.585 198.098 277.734 198.098Z" fill="#F2F2F2"/>
<path d="M173.513 240.23C182.661 240.23 190.078 232.288 190.078 222.49C190.078 212.693 182.661 204.75 173.513 204.75C164.364 204.75 156.948 212.693 156.948 222.49C156.948 232.288 164.364 240.23 173.513 240.23Z" fill="#F2F2F2"/>
<path d="M283.946 306.017C293.094 306.017 300.511 298.074 300.511 288.277C300.511 278.479 293.094 270.537 283.946 270.537C274.797 270.537 267.381 278.479 267.381 288.277C267.381 298.074 274.797 306.017 283.946 306.017Z" fill="#F2F2F2"/>
<path d="M402.661 342.975C411.81 342.975 419.226 335.033 419.226 325.235C419.226 315.438 411.81 307.495 402.661 307.495C393.513 307.495 386.096 315.438 386.096 325.235C386.096 335.033 393.513 342.975 402.661 342.975Z" fill="#F2F2F2"/>
<path d="M541.393 334.844C550.541 334.844 557.958 326.902 557.958 317.104C557.958 307.307 550.541 299.364 541.393 299.364C532.244 299.364 524.828 307.307 524.828 317.104C524.828 326.902 532.244 334.844 541.393 334.844Z" fill="#F2F2F2"/>
<path d="M294.349 50.2662C244.729 50.6416 204.1 93.8255 203.395 146.962C203.389 147.452 203.386 150.902 203.386 155.414C203.387 162.029 205.84 168.373 210.208 173.051C214.576 177.729 220.499 180.357 226.676 180.358C229.739 180.357 232.77 179.71 235.599 178.454C238.427 177.198 240.997 175.357 243.161 173.037C245.325 170.717 247.041 167.963 248.211 164.933C249.381 161.902 249.981 158.655 249.979 155.375C249.976 152.306 249.975 150.182 249.975 150.052C249.973 141.84 251.968 133.768 255.762 126.632C259.557 119.496 265.021 113.541 271.616 109.352C278.212 105.163 285.712 102.885 293.379 102.742C301.046 102.599 308.616 104.596 315.344 108.536C322.071 112.476 327.726 118.225 331.75 125.215C335.774 132.205 338.03 140.197 338.295 148.404C338.561 156.612 336.827 164.752 333.264 172.023C329.7 179.295 324.431 185.448 317.974 189.878L317.982 189.888C317.982 189.888 284.833 212.743 274.726 244.096L274.735 244.098C272.958 250.521 272.057 257.185 272.061 263.884C272.061 266.638 272.213 290.732 272.505 310.287C272.607 317.035 275.182 323.469 279.674 328.201C284.167 332.934 290.216 335.585 296.517 335.584C299.684 335.583 302.819 334.913 305.742 333.61C308.665 332.308 311.319 330.399 313.551 327.994C315.783 325.589 317.549 322.735 318.747 319.596C319.945 316.457 320.552 313.096 320.532 309.705C320.431 291.795 320.376 270.941 320.376 269.428C320.376 250.176 337.717 230.995 351.962 218.486C368.366 204.082 380.17 184.453 384.911 162.31C385.96 157.751 386.538 153.083 386.636 148.389C386.636 135.443 384.244 122.625 379.598 110.674C374.952 98.723 368.143 87.8744 359.565 78.7536C350.987 69.6328 340.808 62.4201 329.615 57.5309C318.422 52.6417 306.437 50.1727 294.349 50.2662Z" fill="#267D0D"/>
<path d="M582.178 440H0.821882C0.604335 439.999 0.395918 439.906 0.242312 439.741C0.088705 439.576 0.00244141 439.353 0.00244141 439.12C0.00244141 438.887 0.088705 438.663 0.242312 438.498C0.395918 438.333 0.604335 438.24 0.821882 438.24H582.178C582.396 438.24 582.605 438.332 582.759 438.498C582.913 438.663 583 438.886 583 439.12C583 439.353 582.913 439.577 582.759 439.742C582.605 439.907 582.396 440 582.178 440Z" fill="#3F3D56"/>
<path d="M433.759 201.791C445.195 201.791 454.465 191.863 454.465 179.616C454.465 167.369 445.195 157.44 433.759 157.44C422.323 157.44 413.053 167.369 413.053 179.616C413.053 191.863 422.323 201.791 433.759 201.791Z" fill="#2F2E41"/>
<path d="M395.497 430.293H387.035L383.009 395.339H395.499L395.497 430.293Z" fill="#A0616A"/>
<path d="M380.991 427.703H397.31V438.707H370.716C370.716 437.262 370.982 435.831 371.498 434.496C372.014 433.161 372.771 431.948 373.725 430.926C374.679 429.904 375.812 429.094 377.059 428.541C378.305 427.988 379.641 427.703 380.991 427.703Z" fill="#2F2E41"/>
<path d="M461.066 430.293H452.605L448.579 395.339H461.068L461.066 430.293Z" fill="#A0616A"/>
<path d="M446.56 427.703H462.879V438.707H436.285C436.285 437.262 436.551 435.831 437.067 434.496C437.584 433.161 438.34 431.948 439.295 430.926C440.249 429.904 441.381 429.094 442.628 428.541C443.875 427.988 445.211 427.703 446.56 427.703Z" fill="#2F2E41"/>
<path d="M430.612 201.92C439.975 201.92 447.565 193.792 447.565 183.765C447.565 173.739 439.975 165.611 430.612 165.611C421.25 165.611 413.66 173.739 413.66 183.765C413.66 193.792 421.25 201.92 430.612 201.92Z" fill="#A0616A"/>
<path d="M440.717 260.488L448.302 241.824C450.144 237.446 450.672 232.563 449.813 227.85C448.954 223.136 446.75 218.825 443.505 215.51C442.839 214.804 442.131 214.145 441.386 213.536C437.643 210.4 433.031 208.691 428.279 208.68C425.084 208.693 421.929 209.444 419.03 210.882C418.782 211.001 418.54 211.126 418.292 211.252C417.815 211.496 417.346 211.762 416.891 212.036C413.919 213.863 411.39 216.412 409.508 219.478C407.626 222.544 406.443 226.041 406.054 229.687L402.707 259.727C401.865 262.085 371.827 347.237 382.332 412.247C382.444 412.942 382.76 413.579 383.234 414.067C383.709 414.556 384.316 414.868 384.969 414.96L395.619 416.512C396.396 416.626 397.185 416.42 397.827 415.936C398.468 415.452 398.915 414.726 399.076 413.903L416.946 322.682C417.057 322.115 417.343 321.605 417.757 321.232C418.171 320.86 418.69 320.647 419.23 320.627C419.771 320.608 420.302 320.783 420.739 321.124C421.175 321.466 421.492 321.955 421.639 322.512L446.887 418.442C447.067 419.139 447.455 419.753 447.993 420.191C448.53 420.629 449.187 420.866 449.862 420.866C450.063 420.865 450.264 420.845 450.462 420.807L463.472 418.124C464.229 417.972 464.905 417.524 465.369 416.866C465.832 416.208 466.05 415.389 465.978 414.568C464.066 391.735 453.906 277.363 440.717 260.488Z" fill="#2F2E41"/>
<path d="M364.732 198.874C364.614 199.953 364.719 201.047 365.039 202.078C365.359 203.109 365.886 204.053 366.583 204.843C367.28 205.632 368.13 206.248 369.074 206.648C370.017 207.047 371.031 207.221 372.044 207.155L381.52 231.542L388.688 220.163L378.59 198.749C378.375 196.934 377.545 195.267 376.259 194.064C374.972 192.86 373.318 192.204 371.609 192.219C369.901 192.235 368.258 192.92 366.99 194.147C365.722 195.373 364.919 197.055 364.732 198.874Z" fill="#A0616A"/>
<path d="M429.672 285.044C430.68 284.915 431.649 284.551 432.511 283.977C433.373 283.404 434.107 282.635 434.661 281.725C435.216 280.815 435.577 279.786 435.72 278.71C435.863 277.635 435.784 276.538 435.489 275.499L455.425 259.948L443.422 255.134L426.33 270.64C424.732 271.287 423.412 272.539 422.619 274.16C421.826 275.78 421.615 277.656 422.027 279.431C422.439 281.207 423.445 282.759 424.854 283.793C426.263 284.828 427.978 285.273 429.672 285.044Z" fill="#A0616A"/>
<path d="M397.172 247.8C396.407 247.8 395.645 247.719 394.895 247.56C393.082 247.19 391.381 246.349 389.943 245.109C388.505 243.87 387.374 242.27 386.649 240.452L373.373 223.116C373.093 222.75 372.888 222.323 372.774 221.865C372.66 221.407 372.638 220.928 372.711 220.461C372.784 219.993 372.949 219.548 373.195 219.154C373.442 218.76 373.764 218.427 374.14 218.178L383.585 211.917C383.934 211.685 384.322 211.53 384.727 211.461C385.132 211.391 385.546 211.408 385.944 211.51C386.343 211.613 386.719 211.799 387.051 212.057C387.382 212.316 387.662 212.643 387.875 213.018L397.232 229.527L415.151 215.345C416.577 214.544 418.225 214.319 419.794 214.712C421.363 215.105 422.747 216.089 423.694 217.484C424.641 218.88 425.088 220.594 424.952 222.313C424.817 224.032 424.109 225.641 422.957 226.847L405.072 244.319C402.97 246.55 400.131 247.801 397.172 247.8Z" fill="#2F2E41"/>
<path d="M445.59 273.873C445.566 273.873 445.541 273.873 445.517 273.872C445.082 273.861 444.653 273.752 444.259 273.552C443.866 273.352 443.516 273.065 443.232 272.711L434.835 262.22C434.549 261.863 434.337 261.445 434.213 260.993C434.089 260.541 434.056 260.067 434.116 259.601C434.176 259.135 434.328 258.687 434.561 258.289C434.795 257.89 435.104 257.549 435.47 257.288L451.194 246.061L436.949 227.721C436.121 226.241 435.817 224.492 436.093 222.792C436.369 221.093 437.207 219.556 438.454 218.464C439.7 217.371 441.273 216.795 442.883 216.842C444.493 216.888 446.034 217.553 447.224 218.716L464.537 236.835C465.9 238.168 466.94 239.835 467.568 241.694C468.197 243.552 468.395 245.546 468.145 247.504C467.896 249.462 467.207 251.327 466.136 252.937C465.066 254.547 463.647 255.855 462.001 256.748L447.85 272.828C447.56 273.158 447.209 273.421 446.821 273.6C446.432 273.78 446.013 273.873 445.59 273.873Z" fill="#2F2E41"/>
<path d="M426.302 235.215C426.167 235.215 426.033 235.206 425.899 235.187C425.314 235.111 424.762 234.857 424.308 234.455C423.854 234.053 423.518 233.52 423.338 232.919L417.028 212.201C416.87 211.677 416.894 211.109 417.096 210.603C417.299 210.097 417.665 209.687 418.128 209.447L418.333 209.344C418.519 209.249 418.702 209.156 418.89 209.066C421.833 207.605 425.035 206.843 428.279 206.832C432.49 206.84 436.606 208.165 440.124 210.643C440.595 210.98 440.925 211.501 441.041 212.094C441.158 212.688 441.052 213.307 440.746 213.818L428.909 233.678C428.631 234.149 428.247 234.538 427.791 234.806C427.335 235.075 426.823 235.216 426.302 235.215Z" fill="#E6E6E6"/>
<path d="M450.084 169.716C453.826 169.716 456.86 166.467 456.86 162.46C456.86 158.452 453.826 155.203 450.084 155.203C446.342 155.203 443.309 158.452 443.309 162.46C443.309 166.467 446.342 169.716 450.084 169.716Z" fill="#2F2E41"/>
<path d="M426.857 154.484C422.098 154.484 417.533 156.508 414.168 160.113C410.802 163.717 408.912 168.605 408.912 173.702V181.833H418.25L422.716 173.702L424.056 181.833H452.395L444.802 173.702C444.802 168.605 442.912 163.717 439.546 160.113C436.181 156.508 431.616 154.484 426.857 154.484Z" fill="#2F2E41"/>
<path d="M453.566 157.489C454.316 154.98 455.867 152.834 457.947 151.429C460.028 150.023 462.504 149.448 464.942 149.805C469.259 150.578 472.673 154.295 474.708 158.447C476.742 162.598 477.681 167.245 479.049 171.698C480.416 176.152 482.355 180.63 485.808 183.513C489.26 186.396 494.558 187.179 497.948 184.213C497.561 187.304 496.276 190.186 494.275 192.452C492.275 194.718 489.659 196.253 486.799 196.84C483.939 197.427 480.979 197.036 478.338 195.722C475.697 194.409 473.508 192.239 472.081 189.521C470.292 186.112 469.83 182.117 469.3 178.248C468.769 174.379 468.08 170.376 465.944 167.204C463.808 164.033 459.81 161.961 456.417 163.406L453.566 157.489Z" fill="#2F2E41"/>
<path d="M233.253 168.559C227.076 168.559 221.152 165.93 216.784 161.252C212.416 156.575 209.963 150.23 209.962 143.615C209.962 139.104 209.965 135.654 209.971 135.163C210.167 119.71 213.802 104.529 220.572 90.8806C209.448 107.189 203.332 126.796 203.069 146.99C203.063 147.481 203.06 150.93 203.06 155.442C203.06 162.057 205.514 168.401 209.882 173.079C214.25 177.757 220.173 180.385 226.35 180.386C231.426 180.384 236.363 178.608 240.41 175.327C244.457 172.046 247.394 167.441 248.774 162.209C244.509 166.305 238.981 168.567 233.253 168.559Z" fill="#3F3D56"/>
<path d="M295.928 102.825C303.069 103.191 310.02 105.407 316.186 109.283C322.351 113.159 327.546 118.58 331.324 125.08C335.102 131.579 337.35 138.964 337.876 146.6C338.403 154.235 337.19 161.894 334.344 168.917C338.461 163.739 341.487 157.671 343.216 151.127C344.945 144.583 345.335 137.716 344.362 130.996C343.388 124.275 341.072 117.858 337.573 112.183C334.074 106.508 329.473 101.707 324.084 98.1086C318.696 94.5101 312.646 92.1983 306.347 91.3308C300.049 90.4632 293.65 91.0604 287.586 93.0815C281.522 95.1027 275.937 98.5002 271.211 103.043C266.484 107.585 262.728 113.165 260.198 119.403C264.571 113.895 270.067 109.535 276.261 106.661C282.456 103.786 289.185 102.474 295.928 102.825Z" fill="#3F3D56"/>
<path d="M303.093 323.785C296.792 323.787 290.743 321.135 286.25 316.403C281.758 311.67 279.183 305.236 279.081 298.489C278.789 278.933 278.637 254.839 278.637 252.086C278.633 245.387 279.534 238.722 281.311 232.3L281.303 232.297C282.352 229.073 283.619 225.936 285.095 222.909C280.566 229.373 276.961 236.523 274.4 244.124L274.409 244.126C272.632 250.549 271.731 257.213 271.735 263.912C271.735 266.666 271.887 290.76 272.179 310.316C272.281 317.063 274.856 323.497 279.348 328.23C283.841 332.962 289.89 335.613 296.191 335.612C301.387 335.611 306.442 333.806 310.599 330.468C314.755 327.129 317.789 322.438 319.245 317.097C314.83 321.408 309.068 323.794 303.093 323.785Z" fill="#3F3D56"/>
<path d="M87.3395 430.63L95.8007 430.629L99.8267 395.675L87.3374 395.676L87.3395 430.63Z" fill="#FFB8B8"/>
<path d="M112.12 439.043L85.526 439.045L85.5255 428.041L101.845 428.04C104.57 428.04 107.183 429.199 109.11 431.263C111.037 433.326 112.12 436.125 112.12 439.043Z" fill="#2F2E41"/>
<path d="M56.9703 430.63L65.4316 430.629L69.4575 395.675L56.9683 395.676L56.9703 430.63Z" fill="#FFB8B8"/>
<path d="M81.751 439.043L55.1569 439.045L55.1564 428.041L71.4755 428.04C74.2006 428.04 76.8141 429.199 78.7412 431.263C80.6682 433.326 81.7509 436.125 81.751 439.043Z" fill="#2F2E41"/>
<path d="M64.3645 419.88L56.0993 419.414C55.6731 419.39 55.2556 419.276 54.871 419.078C54.4863 418.88 54.1422 418.602 53.8586 418.26C53.5749 417.919 53.3573 417.52 53.2185 417.088C53.0796 416.656 53.0222 416.199 53.0496 415.743L62.9283 298.609L108.42 311.756L112.803 310.475L99.0971 414.17C98.9804 414.95 98.6187 415.664 98.0718 416.194C97.5248 416.724 96.8255 417.038 96.0891 417.085L87.1793 417.53C86.7338 417.556 86.288 417.484 85.8701 417.316C85.4522 417.149 85.0712 416.89 84.7513 416.557C84.4314 416.224 84.1796 415.823 84.0116 415.381C83.8437 414.938 83.7633 414.463 83.7756 413.985L85.3899 351.75C85.3975 351.462 85.3041 351.181 85.1282 350.964C84.9524 350.746 84.7067 350.607 84.4397 350.573C84.1727 350.54 83.9037 350.615 83.6857 350.783C83.4676 350.952 83.3165 351.202 83.2619 351.483L67.693 417.131C67.546 417.91 67.1514 418.61 66.5763 419.112C66.0012 419.615 65.2813 419.888 64.5393 419.885C64.4814 419.885 64.4232 419.883 64.3645 419.88Z" fill="#2F2E41"/>
<path d="M88.8584 202.769C98.2208 202.769 105.811 194.641 105.811 184.615C105.811 174.588 98.2208 166.46 88.8584 166.46C79.496 166.46 71.9062 174.588 71.9062 184.615C71.9062 194.641 79.496 202.769 88.8584 202.769Z" fill="#FFB8B8"/>
<path d="M60.6342 237.952L62.4981 281.022L63.172 296.691C63.1988 297.373 63.4151 298.031 63.7931 298.581C64.1711 299.131 64.6936 299.547 65.2939 299.777L109.009 316.736C109.362 316.877 109.736 316.947 110.113 316.944C110.543 316.946 110.97 316.855 111.367 316.677C111.764 316.499 112.124 316.237 112.424 315.906C112.725 315.576 112.96 315.184 113.116 314.754C113.272 314.325 113.345 313.865 113.332 313.404L111.539 235.964C111.422 229.61 109.238 223.5 105.364 218.685C101.491 213.871 96.1702 210.656 90.32 209.592C89.8972 209.523 89.467 209.454 89.0368 209.393C85.4092 208.91 81.7269 209.285 78.2491 210.491C74.7713 211.697 71.5825 213.704 68.9069 216.371C66.1365 219.1 63.9595 222.447 62.53 226.177C61.1005 229.906 60.4533 233.926 60.6342 237.952Z" fill="#CCCCCC"/>
<path d="M129.892 308.143C128.858 307.799 127.913 307.201 127.133 306.397C126.353 305.593 125.76 304.605 125.4 303.512C125.04 302.418 124.923 301.25 125.06 300.1C125.196 298.95 125.582 297.85 126.186 296.888L111.362 275.777L124.154 274.929L136.27 295.106C137.568 296.18 138.47 297.709 138.82 299.424C139.17 301.14 138.944 302.932 138.183 304.488C137.422 306.043 136.174 307.262 134.658 307.93C133.142 308.598 131.454 308.674 129.892 308.143Z" fill="#FFB8B8"/>
<path d="M119.469 293.067C119.076 292.896 118.719 292.644 118.418 292.324C118.117 292.005 117.878 291.625 117.715 291.206L95.3809 234.22C94.9427 233.104 94.7141 231.907 94.7081 230.696C94.7022 229.486 94.919 228.286 95.3462 227.165C95.7734 226.045 96.4027 225.025 97.1979 224.165C97.9932 223.305 98.939 222.621 99.9811 222.153C101.023 221.685 102.141 221.441 103.272 221.435C104.402 221.43 105.522 221.663 106.568 222.121C107.614 222.58 108.566 223.254 109.368 224.107C110.171 224.959 110.808 225.972 111.245 227.089L133.579 284.076C133.909 284.92 133.912 285.871 133.589 286.719C133.265 287.567 132.641 288.242 131.853 288.598L121.938 293.054C121.547 293.231 121.128 293.324 120.704 293.326C120.281 293.328 119.861 293.24 119.469 293.067Z" fill="#CCCCCC"/>
<path d="M83.4081 291.057L104.859 247.07C105.273 246.224 105.983 245.588 106.834 245.302C107.684 245.016 108.606 245.104 109.397 245.545L140.533 262.96C141.323 263.403 141.917 264.163 142.184 265.074C142.451 265.985 142.37 266.973 141.958 267.82L120.507 311.807C120.093 312.653 119.383 313.288 118.532 313.574C117.681 313.86 116.759 313.773 115.969 313.332L84.8323 295.917C84.0424 295.474 83.4488 294.714 83.1818 293.803C82.9148 292.891 82.9962 291.904 83.4081 291.057Z" fill="#3F3D56"/>
<path d="M97.7942 270.961C97.4129 269.876 96.8 268.901 96.0045 268.115C95.2089 267.328 94.2528 266.752 93.2124 266.432C92.1719 266.111 91.076 266.056 90.012 266.27C88.948 266.484 87.9454 266.961 87.0843 267.664L66.531 253.062L66.4961 266.788L86.0192 278.55C87.0969 279.873 88.5752 280.748 90.1949 281.02C91.8146 281.293 93.4722 280.946 94.877 280.041C96.2818 279.135 97.344 277.729 97.8775 276.069C98.4109 274.408 98.3814 272.6 97.7942 270.961Z" fill="#FFB8B8"/>
<path d="M71.8078 274.047L55.0105 259.798C53.1933 259.144 51.5514 258.028 50.2256 256.546C48.8998 255.063 47.9297 253.258 47.3987 251.286C46.8677 249.313 46.7915 247.232 47.1768 245.221C47.5621 243.21 48.3973 241.329 49.6107 239.74L64.8623 218.334C65.9221 216.947 67.4127 216.015 69.0615 215.708C70.7102 215.401 72.4071 215.74 73.8419 216.662C75.2767 217.585 76.3536 219.029 76.8756 220.732C77.3977 222.435 77.3301 224.282 76.6852 225.936L64.6178 247.076L82.3519 256.085C82.7643 256.294 83.1305 256.595 83.4263 256.967C83.7221 257.339 83.9407 257.775 84.0678 258.244C84.1949 258.713 84.2276 259.206 84.1635 259.69C84.0995 260.174 83.9404 260.638 83.6965 261.051L76.5379 273.184C76.2959 273.594 75.9763 273.944 75.5998 274.213C75.2233 274.482 74.7982 274.663 74.3522 274.745C74.3345 274.748 74.3167 274.751 74.2989 274.754C73.8606 274.825 73.4134 274.799 72.985 274.677C72.5565 274.556 72.1559 274.341 71.8078 274.047Z" fill="#CCCCCC"/>
<path d="M76.0492 196.771C75.9765 196.543 75.9534 196.301 75.9818 196.062C76.0101 195.823 76.0892 195.594 76.2129 195.393C76.3365 195.192 76.5015 195.024 76.6953 194.901C76.889 194.779 77.1063 194.706 77.3305 194.687C77.7896 194.714 78.2389 194.84 78.6513 195.058C79.0637 195.276 79.4305 195.581 79.7297 195.955C80.3432 196.713 81.0574 197.369 81.8495 197.904C82.6695 198.347 83.7817 198.284 84.2492 197.44C84.6882 196.647 84.3874 195.586 84.1216 194.666C83.4453 192.323 83.0669 189.894 82.9966 187.444C82.9201 184.709 83.2804 181.854 84.6944 179.721C86.5192 176.968 89.7822 175.922 92.8701 175.998C95.9581 176.074 98.996 177.095 102.055 177.74C103.111 177.963 104.352 178.077 105.058 177.2C105.809 176.268 105.533 174.76 105.214 173.502C104.385 170.237 103.506 166.861 101.58 164.224C99.4976 161.483 96.5231 159.69 93.2554 159.204C90.1183 158.788 86.9338 159.176 83.9636 160.334C79.1245 161.968 74.8664 165.144 71.7588 169.44C68.5554 174.008 67.1711 179.748 67.9088 185.406C68.6295 190.334 71.0677 194.786 74.732 197.864L76.0492 196.771Z" fill="#2F2E41"/>
<path d="M290.755 430.774C286.245 428.67 282.253 425.473 279.094 421.434C275.935 417.395 273.696 412.625 272.554 407.501C271.411 402.376 271.396 397.038 272.51 391.906C273.624 386.775 275.837 381.991 278.973 377.932C275.337 380.775 272.307 384.414 270.084 388.607C267.862 392.8 266.498 397.451 266.082 402.252C265.666 407.053 266.209 411.894 267.674 416.453C269.138 421.012 271.492 425.186 274.578 428.696C277.664 432.207 281.412 434.974 285.573 436.815C289.734 438.656 294.213 439.528 298.713 439.373C303.213 439.219 307.63 438.041 311.672 435.918C315.715 433.795 319.289 430.775 322.158 427.06C317.683 430.563 312.429 432.749 306.919 433.401C301.409 434.052 295.836 433.147 290.755 430.774Z" fill="#3F3D56"/>
</g>
<defs>
<clipPath id="clip0_64_28">
<rect width="583" height="440" fill="white"/>
</clipPath>
</defs>
</svg>
