<svg width="583" height="433" viewBox="0 0 583 433" fill="none" xmlns="http://www.w3.org/2000/svg">
<g clip-path="url(#clip0_47_152)">
<path d="M438.757 102.897H436.344V37.7217C436.344 27.7173 432.312 18.1226 425.136 11.0484C417.96 3.97426 408.228 1.26236e-05 398.079 1.35608e-10H258.01C252.985 -1.32822e-05 248.009 0.975675 243.367 2.87136C238.724 4.76704 234.506 7.54558 230.953 11.0484C227.4 14.5511 224.581 18.7095 222.658 23.2861C220.735 27.8627 219.746 32.7679 219.746 37.7216V395.278C219.746 400.232 220.735 405.137 222.658 409.714C224.581 414.29 227.4 418.449 230.953 421.952C234.506 425.454 238.724 428.233 243.367 430.129C248.009 432.024 252.985 433 258.01 433H398.079C408.227 433 417.96 429.026 425.136 421.952C432.312 414.878 436.343 405.283 436.343 395.278V149.29H438.757L438.757 102.897Z" fill="#3F3D56"/>
<path d="M399.623 9.81389H381.34C382.18 11.8461 382.501 14.0509 382.274 16.2342C382.047 18.4174 381.279 20.5121 380.037 22.3337C378.795 24.1553 377.118 25.6478 375.153 26.6799C373.188 27.712 370.996 28.2519 368.77 28.2521H288.526C286.3 28.2519 284.108 27.712 282.143 26.6799C280.178 25.6479 278.501 24.1553 277.259 22.3337C276.017 20.5121 275.249 18.4174 275.022 16.2342C274.795 14.0509 275.116 11.8461 275.957 9.81389H258.88C251.301 9.81389 244.033 12.7818 238.674 18.0647C233.315 23.3476 230.304 30.5128 230.304 37.984V395.016C230.304 398.715 231.043 402.379 232.479 405.796C233.915 409.214 236.02 412.32 238.674 414.935C241.327 417.551 244.477 419.626 247.944 421.042C251.411 422.458 255.127 423.186 258.88 423.186H399.623C403.376 423.186 407.092 422.458 410.559 421.042C414.026 419.626 417.176 417.551 419.829 414.935C422.483 412.32 424.587 409.214 426.023 405.796C427.46 402.379 428.199 398.715 428.199 395.016V37.984C428.199 34.2846 427.46 30.6215 426.023 27.2037C424.587 23.786 422.483 20.6805 419.829 18.0647C417.176 15.4489 414.026 13.3739 410.559 11.9582C407.092 10.5425 403.376 9.81388 399.623 9.81389Z" fill="white"/>
<path d="M358.405 164.631C372.405 164.631 383.753 163.565 383.753 162.251C383.753 160.936 372.405 159.871 358.405 159.871C344.406 159.871 333.058 160.936 333.058 162.251C333.058 163.565 344.406 164.631 358.405 164.631Z" fill="#E6E6E6"/>
<path d="M583 59.4176H349.647V134.937H358.487V154.688L378.522 134.937H583V59.4176Z" fill="#267D0D"/>
<path d="M481.732 84.9913H375.62V88.1658H481.732V84.9913Z" fill="white"/>
<path d="M560.564 95.9731H375.62V99.1476H560.564V95.9731Z" fill="white"/>
<path d="M560.382 106.955H375.62V110.129H560.382V106.955Z" fill="white"/>
<path d="M523.385 287.193H337.115V347.475H344.17V363.241L360.163 347.475H523.385V287.193Z" fill="#267D0D"/>
<path d="M442.549 307.607H357.847V310.141H442.549V307.607Z" fill="white"/>
<path d="M505.475 316.373H357.847V318.907H505.475V316.373Z" fill="white"/>
<path d="M505.33 325.139H357.847V327.673H505.33V325.139Z" fill="white"/>
<path d="M344.106 371.177C355.28 371.177 364.339 370.327 364.339 369.278C364.339 368.229 355.28 367.378 344.106 367.378C332.931 367.378 323.872 368.229 323.872 369.278C323.872 370.327 332.931 371.177 344.106 371.177Z" fill="#E6E6E6"/>
<path d="M288.397 252.685C302.396 252.685 313.745 251.619 313.745 250.305C313.745 248.991 302.396 247.925 288.397 247.925C274.398 247.925 263.049 248.991 263.049 250.305C263.049 251.619 274.398 252.685 288.397 252.685Z" fill="#E6E6E6"/>
<path d="M133.037 177.83H297.139V230.939H290.922V244.828L276.833 230.939H133.037V177.83Z" fill="#267D0D"/>
<path d="M224.68 195.406H150.059V197.639H224.68V195.406Z" fill="white"/>
<path d="M280.117 203.129H150.059V205.362H280.117V203.129Z" fill="white"/>
<path d="M279.99 210.852H150.059V213.084H279.99V210.852Z" fill="white"/>
<path d="M53.1003 307.375C53.8871 308.71 55.1799 309.683 56.6944 310.079C58.2088 310.475 59.8207 310.262 61.1756 309.486C62.5305 308.711 63.5173 307.436 63.919 305.943C64.3207 304.45 64.1043 302.861 63.3174 301.525C63.1522 301.252 62.9662 300.992 62.761 300.747L67.7306 265.829L67.8794 264.783L68.8889 257.658L69.0377 256.631L68.4876 256.656L58.8594 257.09L56.2774 257.205L55.9539 263.705L54.1227 300.25C53.1659 301.152 52.5449 302.345 52.3594 303.638C52.174 304.93 52.4349 306.246 53.1003 307.375Z" fill="#A0616A"/>
<path d="M67.851 265.101L55.625 263.995C54.9908 263.936 54.4061 263.632 53.9983 263.15C53.5906 262.667 53.3928 262.045 53.4481 261.42L55.7158 236.356C55.8257 235.139 56.1822 233.955 56.7642 232.876C57.3462 231.797 58.1418 230.844 59.104 230.073C60.0663 229.303 61.1755 228.73 62.3662 228.39C63.5568 228.049 64.8047 227.947 66.0359 228.091C67.2671 228.234 68.4567 228.619 69.5342 229.224C70.6116 229.828 71.5552 230.64 72.309 231.61C73.0627 232.58 73.6114 233.69 73.9225 234.873C74.2336 236.056 74.3008 237.289 74.1202 238.498L70.4542 263.082C70.37 263.645 70.0834 264.16 69.6465 264.532C69.2096 264.905 68.6516 265.11 68.074 265.111C68.0002 265.111 67.9257 265.108 67.851 265.101Z" fill="#CCCCCC"/>
<path d="M58.585 244.851C57.3485 241.398 57.2911 237.641 58.4218 234.153C59.5525 230.665 61.8091 227.637 64.8477 225.531C69.458 222.421 75.7669 221.305 82.561 229.278C96.1494 245.225 99.7082 262.767 99.7082 262.767L71.8845 267.232C71.8845 267.232 62.4213 255.83 58.585 244.851Z" fill="#CCCCCC"/>
<path d="M103.585 424.484H111.518L115.292 394.319L103.584 394.32L103.585 424.484Z" fill="#A0616A"/>
<path d="M126.817 431.745L101.886 431.746L101.885 422.25L119.124 422.249C120.134 422.249 121.134 422.445 122.068 422.826C123.001 423.207 123.849 423.766 124.564 424.47C125.278 425.174 125.845 426.01 126.232 426.93C126.618 427.851 126.817 428.837 126.817 429.833L126.817 431.745Z" fill="#2F2E41"/>
<path d="M38.3652 417.664L45.8972 420.118L59.0841 392.646L47.9679 389.023L38.3652 417.664Z" fill="#A0616A"/>
<path d="M58.1113 431.746L34.4391 424.032L37.4621 415.016L53.8299 420.349C54.7891 420.662 55.6765 421.158 56.4414 421.808C57.2063 422.459 57.8337 423.252 58.2878 424.141C58.7419 425.031 59.0138 426 59.0879 426.994C59.1621 427.987 59.0371 428.985 58.72 429.93L58.1113 431.746Z" fill="#2F2E41"/>
<path d="M83.673 215.702C91.3746 211.551 94.205 202.032 89.9949 194.44C85.7849 186.847 76.1285 184.057 68.4269 188.207C60.7253 192.358 57.8949 201.877 62.105 209.469C66.315 217.062 75.9714 219.852 83.673 215.702Z" fill="#A0616A"/>
<path d="M89.9647 416.086L82.5975 368.153C82.5189 367.641 82.2625 367.172 81.8721 366.826C81.4817 366.48 80.9816 366.279 80.4572 366.256C79.9328 366.234 79.4168 366.392 78.9972 366.703C78.5777 367.014 78.2808 367.459 78.1573 367.961L66.9386 413.642C66.7618 414.342 66.3261 414.951 65.717 415.351C65.1079 415.75 64.3694 415.911 63.6464 415.801L32.7005 410.898C32.2902 410.833 31.8988 410.682 31.5525 410.456C31.2062 410.229 30.9131 409.932 30.6929 409.585C30.4727 409.237 30.3305 408.847 30.2758 408.441C30.2211 408.035 30.2553 407.622 30.376 407.23L70.7274 276.083C70.8421 275.71 70.8557 275.314 70.7669 274.934L69.4233 269.195C69.2758 268.573 69.3438 267.919 69.6167 267.34C69.8896 266.76 70.3515 266.287 70.9288 265.997C76.4235 263.233 90.3376 257.487 100.843 263.781C101.184 263.986 101.479 264.257 101.711 264.578C101.942 264.899 102.105 265.263 102.189 265.648L133.711 411.702C133.797 412.099 133.796 412.51 133.709 412.907C133.622 413.304 133.451 413.678 133.206 414.005C132.961 414.331 132.649 414.603 132.29 414.802C131.931 415.001 131.533 415.123 131.123 415.159L93.1035 418.515C93.0158 418.523 92.9288 418.526 92.8425 418.526C92.1464 418.525 91.4737 418.278 90.9459 417.831C90.4182 417.384 90.0701 416.765 89.9647 416.086Z" fill="#2F2E41"/>
<path d="M65.5116 190.885C66.7096 190.175 67.7728 189.264 68.6534 188.194C69.0876 187.653 69.3733 187.011 69.4832 186.33C69.5931 185.649 69.5234 184.951 69.2807 184.304C68.4778 182.558 66.0917 182.005 64.243 182.6C62.3943 183.196 60.9659 184.623 59.6147 186.002C58.4245 187.217 57.2004 188.485 56.6358 190.079C56.0712 191.674 56.3612 193.695 57.7655 194.663C59.1435 195.612 61.1248 195.223 62.4502 194.204C63.7757 193.184 64.5961 191.671 65.3784 190.204L65.5116 190.885Z" fill="#2F2E41"/>
<path d="M60.129 186.421C60.0409 182.007 54.9366 178.841 50.5286 179.624C46.1206 180.406 42.7323 184.111 41.0362 188.198C37.4527 196.832 40.1428 206.683 43.5957 215.369C47.0485 224.055 51.3214 232.872 50.8178 242.187C50.4774 247.223 48.7637 252.074 45.8577 256.229C42.9517 260.384 38.9613 263.688 34.3081 265.792C39.283 268.015 45.2294 265.719 49.4099 262.253C58.6939 254.557 62.2776 240.855 57.9258 229.693C55.7794 224.187 51.9968 219.477 49.0436 214.348C46.0905 209.218 43.9237 203.173 45.4484 197.47C46.9731 191.766 53.4617 187.147 59.0091 189.356L60.129 186.421Z" fill="#2F2E41"/>
<path d="M77.003 208.907C75.6178 206.599 74.219 203.569 76.752 201.551C77.3026 201.133 77.9326 200.827 78.605 200.651C79.2773 200.476 79.9784 200.435 80.667 200.531C83.5221 200.87 86.6311 201.01 89.3943 199.987C90.4307 199.636 91.3849 199.083 92.2001 198.36C93.0154 197.638 93.6752 196.762 94.1402 195.783C95.5669 192.451 93.7804 188.402 90.798 186.295C88.9735 185.054 86.8176 184.37 84.6007 184.332C82.3839 184.293 80.2049 184.901 78.337 186.078C74.4741 184.396 69.7872 185.144 66.2779 187.46C62.7685 189.775 60.3671 193.483 59.0626 197.442C57.8609 200.85 57.654 204.522 58.4654 208.04C59.1185 210.488 60.3602 212.744 62.0854 214.619C63.8106 216.493 65.9685 217.93 68.3764 218.807C69.3145 219.172 70.3332 219.287 71.3305 219.141C72.3279 218.995 73.2688 218.593 74.0591 217.976C74.0591 217.976 76.2495 216.091 76.9349 213.821C77.4614 212.077 77.7432 210.14 77.003 208.907Z" fill="#2F2E41"/>
<path d="M124.149 222.887C124.07 223.231 124.018 223.581 123.994 223.933L96.1981 239.741L89.4418 235.907L82.2393 245.202L93.5307 253.136C94.4429 253.777 95.5414 254.109 96.6613 254.082C97.7811 254.055 98.8619 253.671 99.7414 252.987L128.404 230.695C129.698 231.167 131.106 231.24 132.443 230.903C133.779 230.567 134.98 229.837 135.886 228.812C136.791 227.786 137.358 226.513 137.512 225.161C137.666 223.81 137.398 222.445 136.746 221.247C136.093 220.049 135.086 219.075 133.858 218.456C132.63 217.836 131.24 217.599 129.873 217.777C128.505 217.955 127.225 218.539 126.203 219.452C125.18 220.365 124.464 221.563 124.149 222.887Z" fill="#A0616A"/>
<path d="M95.2688 240.49L86.2851 251.968C86.0295 252.294 85.7055 252.563 85.3352 252.755C84.9648 252.947 84.5569 253.058 84.1391 253.08C83.7213 253.103 83.3034 253.036 82.914 252.885C82.5246 252.735 82.1728 252.503 81.8826 252.205L71.7124 241.794C70.0246 240.496 68.928 238.59 68.6632 236.496C68.3984 234.401 68.987 232.289 70.2999 230.621C71.6127 228.954 73.5428 227.868 75.6667 227.602C77.7906 227.335 79.9351 227.91 81.6298 229.2L94.3853 236.231C94.7505 236.433 95.0673 236.709 95.3142 237.042C95.5611 237.375 95.7323 237.757 95.8162 238.161C95.9 238.565 95.8945 238.982 95.8001 239.384C95.7056 239.786 95.5244 240.163 95.2688 240.49Z" fill="#CCCCCC"/>
<path d="M186.653 433H0.755681C0.555262 433 0.363051 432.922 0.221334 432.782C0.079616 432.642 0 432.453 0 432.255C0 432.057 0.079616 431.868 0.221334 431.728C0.363051 431.589 0.555262 431.51 0.755681 431.51H186.653C186.853 431.51 187.045 431.589 187.187 431.728C187.329 431.868 187.408 432.057 187.408 432.255C187.408 432.453 187.329 432.642 187.187 432.782C187.045 432.922 186.853 433 186.653 433Z" fill="#CCCCCC"/>
</g>
<defs>
<clipPath id="clip0_47_152">
<rect width="583" height="433" fill="white"/>
</clipPath>
</defs>
</svg>
