<svg width="40" height="40" viewBox="0 0 40 40" fill="none" xmlns="http://www.w3.org/2000/svg">
<g opacity="0.8">
<path d="M27.7781 4C26.1531 5.50781 24.6859 7.09297 23.3859 8.68516C21.2563 5.75156 18.6156 2.77578 15.625 0C7.94844 7.12266 2.5 16.4031 2.5 22C2.5 31.9414 10.3352 40 20 40C29.6648 40 37.5 31.9414 37.5 22C37.5 17.8383 33.4391 9.25469 27.7781 4ZM26.257 30.6133C24.5648 31.7977 22.4781 32.5 20.2234 32.5C14.5867 32.5 10 28.7703 10 22.7148C10 19.6984 11.8992 17.0406 15.6867 12.5C16.2281 13.1234 23.4078 22.2922 23.4078 22.2922L27.9883 17.0672C28.3117 17.6023 28.6062 18.1258 28.8687 18.6273C31.0055 22.7047 30.1039 27.9219 26.257 30.6133Z" fill="white"/>
</g>
</svg>
