<svg width="40" height="40" viewBox="0 0 40 40" fill="none" xmlns="http://www.w3.org/2000/svg">
<g clip-path="url(#clip0_69_59)">
<path d="M1.683 2.26196C0.96576 2.26196 0.358863 2.48265 -0.0273438 3.19989V22.2344C0.358863 23.393 1.0761 24.166 2.40024 24.3867H2.56576C3.283 24.4418 3.283 24.4413 3.283 25.1585V29.1861C3.283 29.5171 3.17266 29.6275 2.84162 29.6827C1.51748 29.9033 0.635277 30.6758 0.138725 31.9447C0.138725 32.0551 0.0830011 32.2206 0.0278287 32.3309V34.9792C0.0830011 35.0896 0.0835528 35.1999 0.138725 35.3102C0.524932 36.5792 1.35252 37.297 2.62148 37.628C3.06286 37.7384 3.50314 37.7384 3.94452 37.7384H24.9663C25.3525 37.7384 25.7939 37.6832 26.1801 37.6832C27.8353 37.5729 29.048 36.4137 29.3238 34.8137C29.4342 34.1516 29.4353 33.4895 29.3801 32.8275C29.2146 31.393 28.4962 30.3447 27.1169 29.8482C26.8411 29.7378 26.7313 29.5723 26.7313 29.2413V23.8349C26.7313 23.0073 26.6209 22.2349 26.2899 21.4625C26.1244 21.1867 26.1796 21.0211 26.4002 20.8004L30.5933 16.6068C30.814 16.3861 31.0353 16.3309 31.3111 16.3309H35.4491C35.8353 16.3309 35.9445 16.4413 35.9445 16.8275V27.0344C35.9445 27.3654 35.8904 27.5861 35.7249 27.862C34.8973 29.1309 34.0135 30.4551 33.1859 31.7792C32.1928 33.3792 31.2008 34.924 30.2077 36.4689C29.7663 37.1309 30.0422 37.6827 30.8146 37.7378H36.3318C36.6629 37.7378 37.0491 37.6832 37.3801 37.628C38.9801 37.297 40.0278 35.9729 40.0278 34.3177V13.3522C40.0278 12.5246 39.8071 12.3039 38.9796 12.3039H29.8209C29.3244 12.3039 28.9933 12.4694 28.6623 12.8004C26.952 14.566 25.2416 16.2758 23.5313 17.9861C23.3106 18.1516 23.1451 18.2068 22.8692 18.0964C22.2623 17.8206 21.6554 17.6551 21.0485 17.6551C20.7727 17.6551 20.7175 17.5447 20.7175 17.2689V15.5591C20.7175 15.1177 20.6071 14.6763 20.4416 14.2901C18.8416 10.6487 17.2416 7.06251 15.6416 3.42114C15.2554 2.59355 14.6485 2.26196 13.7658 2.26196H1.683ZM1.60741 3.69369C1.72493 3.68983 1.89045 3.697 2.12493 3.697H7.75197C9.73817 3.697 11.6698 3.697 13.656 3.75217C14.0422 3.697 14.2071 3.86196 14.3727 4.193C14.7037 5.02058 14.7037 5.02058 13.8209 5.02058H11.3382C10.4554 5.02058 9.90369 5.57286 9.90369 6.45562V14.2901C9.90369 15.228 10.4554 15.7792 11.3933 15.7792H18.6761C19.2278 15.7792 19.2278 15.7792 19.2278 16.3309V22.5102C19.2278 22.8964 19.1175 23.0073 18.7313 23.0073H10.4002C10.1796 23.0073 10.014 22.9522 9.90369 22.7315C9.62783 22.2349 8.96631 22.2349 8.69045 22.7315C8.52493 22.9522 8.35942 23.0073 8.13873 23.0073H2.73183C1.84907 23.0073 1.29735 22.566 1.29735 21.6832V16.1102C1.29735 15.7792 1.51693 15.7787 1.73762 15.7787H7.09045C7.36631 15.7787 7.64217 15.7235 7.86286 15.6131C8.35942 15.3373 8.63417 14.9511 8.63417 14.3993V6.39989C8.63417 5.57231 8.08245 5.02058 7.25486 5.02058H1.7939C1.40769 5.02058 1.29735 4.91079 1.29735 4.52458C1.33873 3.82114 1.25597 3.70693 1.60741 3.69369ZM1.7939 6.34472H6.75942C7.14562 6.34472 7.25486 6.45507 7.25486 6.84127V13.7384C7.25486 14.0694 7.14562 14.2349 6.75942 14.2349H1.73762C1.40659 14.2349 1.29735 14.124 1.29735 13.793V6.7861C1.29735 6.45507 1.46286 6.34472 1.7939 6.34472ZM11.7801 6.34472H14.979C15.2549 6.34472 15.4204 6.45562 15.5307 6.73148C16.579 9.10389 17.683 11.5315 18.7313 13.9039C18.8416 14.1798 18.8416 14.2901 18.5106 14.2901H11.7244C11.4485 14.2901 11.3376 14.1798 11.3376 13.9039V6.78665C11.3376 6.45562 11.448 6.34472 11.779 6.34472H11.7801ZM3.93073 7.64845C3.85782 7.65984 3.78788 7.68552 3.72493 7.72403C3.28355 7.99989 2.89735 8.33093 2.67666 8.77231C2.45597 9.15851 2.78645 9.71024 3.33817 9.71024C3.39335 9.71024 3.50369 9.71024 3.61404 9.59989C4.05542 9.32403 4.44162 8.993 4.66231 8.55162C4.82783 8.33093 4.71748 8.05562 4.49679 7.83493C4.33128 7.71079 4.13486 7.61755 3.93073 7.64845ZM5.39279 9.60707C5.22728 9.59989 5.04907 9.65562 4.88355 9.76596C4.82838 9.76596 4.7721 9.82114 4.7721 9.82114L2.84107 11.7522C2.62038 11.9729 2.51114 12.2487 2.67666 12.5798C2.787 12.8556 3.00769 12.9654 3.28355 13.0206C3.50424 13.0206 3.66976 12.966 3.7801 12.8004C4.49735 12.1384 5.15886 11.4758 5.82093 10.7585C6.09679 10.4827 6.09679 10.0964 5.82093 9.82058C5.71059 9.68265 5.55831 9.61424 5.39279 9.60707ZM37.2692 13.6689C37.3382 13.6689 37.4071 13.6827 37.4899 13.7378C37.1589 14.124 36.7727 14.5102 36.3864 14.8413C36.2761 14.9516 36.1658 14.9516 36.0554 14.9516H31.3658C31.1451 14.9516 31.0347 14.8964 30.9244 14.6758C30.4278 13.6827 30.4278 13.6827 31.5313 13.6827H37.0485C37.1313 13.6827 37.2002 13.6689 37.2692 13.6689ZM29.0419 14.3585C29.1175 14.3723 29.1864 14.4551 29.2692 14.6206C29.7106 15.6137 29.7658 15.2827 29.0485 15.9999C27.8899 17.2137 26.7313 18.3723 25.5727 19.5309C25.5175 19.5861 25.4071 19.6964 25.2968 19.7516C25.1313 19.6964 25.0209 19.5309 24.8002 19.3102C24.414 18.924 24.3037 18.9792 24.8002 18.4827L28.7727 14.5102C28.883 14.3999 28.9658 14.3447 29.0419 14.3585ZM38.4836 14.7867C38.5387 14.7867 38.5387 14.8418 38.5939 14.8418V26.4275C38.5939 26.9792 38.5939 26.9792 38.0422 26.9792C37.2146 26.9792 37.3238 27.0344 37.3238 26.262V16.4964C37.3238 16.1654 37.3801 15.8895 37.656 15.6689C37.9318 15.393 38.2077 15.062 38.4836 14.7861V14.7867ZM9.35252 15.5591C8.96631 15.5591 8.63417 15.8895 8.63417 16.2758V17.0482C8.68935 17.4344 8.96631 17.6551 9.29735 17.6551C9.68355 17.6551 9.95831 17.4344 10.0135 17.1033V16.2758C10.0135 15.8895 9.73872 15.5591 9.35252 15.5591ZM9.29735 18.9798C8.91114 18.9798 8.63417 19.2556 8.63417 19.697V20.4137C8.63417 20.7447 8.96631 21.0206 9.29735 21.0206C9.68355 21.0206 9.95831 20.7999 10.0135 20.4137V19.6413C9.95831 19.2551 9.68355 18.9798 9.29735 18.9798ZM21.1042 19.0895C22.7594 19.1999 24.4698 20.5792 25.0215 22.2896C25.2422 22.9516 25.2422 22.9516 24.5249 22.9516H21.0485C20.7727 22.9516 20.6623 22.8413 20.6623 22.5654V19.4758C20.6623 19.1999 20.7732 19.0895 21.1042 19.0895ZM5.04797 24.3309H9.57321C9.84907 24.3309 9.95886 24.4413 9.95886 24.7171V29.1861C9.95886 29.462 9.84852 29.5723 9.57266 29.5723H5.04852C4.77266 29.5723 4.66231 29.462 4.66231 29.1861V26.9792C4.66231 26.262 4.71748 25.4895 4.66231 24.7171C4.66231 24.4413 4.7721 24.3309 5.04797 24.3309ZM11.7249 24.3309H16.2491C16.4698 24.3309 16.6342 24.3867 16.6342 24.6625C16.6342 24.9384 16.4692 24.9384 16.2485 24.9384H11.7249C11.5042 24.9384 11.3382 24.8827 11.3382 24.6068C11.3933 24.3309 11.5042 24.3309 11.7249 24.3309ZM18.5106 24.3867H24.8554C25.1864 24.3867 25.2968 24.4964 25.2968 24.8275V29.1861C25.2968 29.5171 25.1864 29.628 24.8554 29.628H18.5106C18.1244 29.628 18.014 29.4625 18.014 29.1315V24.8275C18.014 24.4964 18.1796 24.3867 18.5106 24.3867ZM11.6648 26.3629C11.7939 26.3624 11.9721 26.3729 12.2204 26.3729H16.1387C16.4698 26.3729 16.5796 26.4827 16.5796 26.8137C16.5244 27.8068 16.6899 27.6413 15.752 27.6413H13.9313C13.214 27.6413 12.4416 27.5861 11.7244 27.6413C11.4485 27.6413 11.3376 27.5309 11.3376 27.2551C11.3376 26.4689 11.2764 26.3657 11.6648 26.3629ZM37.3238 28.3585H38.2077C38.4836 28.3585 38.5939 28.4689 38.5939 28.7447V31.6689C38.5387 32.4964 38.6491 33.4895 38.5387 34.5378C38.4284 35.5861 37.656 36.3033 36.6077 36.3033H32.2491C31.918 36.3033 31.9721 36.1935 32.0824 35.9729C33.6824 33.5453 35.2836 31.0625 36.8284 28.6349C36.9387 28.4142 37.1031 28.3585 37.3238 28.3585ZM16.3793 29.0719C16.5111 29.0719 16.6342 29.1039 16.6342 29.3522C16.6342 29.6832 16.3594 29.628 16.1939 29.628H11.7249C11.5594 29.628 11.3382 29.628 11.3382 29.3522C11.3382 29.0763 11.5042 29.0763 11.7249 29.0763H16.2491C16.2899 29.0763 16.3351 29.0719 16.3793 29.0719ZM3.44852 31.0073H14.6485C18.3451 31.0073 22.0416 31.0625 25.8485 31.0073C27.1727 31.0073 28.1658 31.9453 28.0554 33.2142V34.3177C28.0002 35.4211 27.2278 36.2487 26.1244 36.3039H3.55886C2.62093 36.3039 1.90369 35.9723 1.57266 35.0896C1.24162 34.0964 1.18645 33.1033 1.57266 32.1654C1.90369 31.3378 2.56576 31.0073 3.44852 31.0073ZM4.66231 31.6142C3.55886 31.6142 2.62093 32.5516 2.62093 33.6551C2.62093 34.7585 3.50369 35.697 4.60714 35.697C5.76576 35.697 6.70259 34.7585 6.70259 33.6551C6.70259 32.5516 5.76521 31.6137 4.66176 31.6137L4.66231 31.6142ZM24.579 31.6142C23.4756 31.6142 22.5928 32.5516 22.5928 33.6551C22.5928 34.7585 23.5307 35.697 24.6342 35.697C25.7376 35.697 26.6761 34.7585 26.6761 33.6551C26.6761 32.5516 25.683 31.6137 24.5796 31.6137L24.579 31.6142ZM4.66176 33.0487C4.99279 33.0487 5.26866 33.324 5.26866 33.6551C5.26866 33.9861 4.99279 34.262 4.71693 34.262C4.3859 34.262 4.11004 34.0413 4.11004 33.7102C4.05486 33.324 4.33073 33.0487 4.66176 33.0487ZM24.6342 33.0487C24.9652 33.0487 25.2416 33.324 25.2416 33.6551C25.2416 33.9861 24.9647 34.262 24.6336 34.262C24.3026 34.262 24.0267 33.9861 24.0267 33.6551C24.0267 33.324 24.3026 33.0482 24.6336 33.0482L24.6342 33.0487Z" fill="white" fill-opacity="0.701961"/>
</g>
<defs>
<clipPath id="clip0_69_59">
<rect width="40" height="40" fill="white"/>
</clipPath>
</defs>
</svg>
