<svg xmlns="http://www.w3.org/2000/svg" width="43" height="40" viewBox="0 0 18.521 18.521"><g opacity="0.8" clip-path="url(#clip0_69_75)"><path fill="white" d="M7.143.129c-.04.01-.08.02-.12.027-.92.174-1.654.637-2.195 1.401-.424.596-.612 1.27-.612 1.994-.003 1.824-.002 3.648.004 5.472 0 .174-.038.257-.221.31a1.798 1.798 0 0 0-1.29 1.716c-.003 2.323 0 4.646-.003 6.97 0 .163.051.288.193.372h5.137c.138-.105.188-.244.188-.419-.003-2.288 0-4.576-.003-6.864a1.828 1.828 0 0 0-1.345-1.789c-.153-.044-.186-.117-.186-.262.007-.636.003-1.273.003-1.908 0-1.207-.004-2.413 0-3.62.001-.53.357-.929.852-.933 1.046-.009 2.093-.009 3.139 0 .464.004.82.382.839.85.007.152-.012.284-.12.41a.77.77 0 0 0-.172.514c0 .351-.004.702 0 1.052a.691.691 0 0 1-.083.341c-.46.891-.921 1.784-1.377 2.679-.154.303-.012.53.33.538.209.003.418.008.625-.002.152-.006.2.055.19.199-.008.136-.003.273 0 .41a1.54 1.54 0 0 0 1.183 1.471c.304.073.614.068.922.053.854-.042 1.423-.52 1.569-1.31.035-.189.014-.38.018-.57.002-.25 0-.25.24-.25h.535c.398-.004.536-.23.355-.586-.281-.55-.543-1.112-.857-1.643-.414-.703-.689-1.427-.568-2.259.004-.022 0-.047 0-.071-.015-.204-.046-.408-.186-.566-.104-.117-.124-.24-.128-.39-.021-1.102-.47-1.995-1.338-2.675-.46-.36-.99-.555-1.558-.662h-3.96zm3.369.621c1.112.008 1.968.472 2.52 1.452.182.32.272.67.308 1.035.016.15-.031.22-.193.213a9.254 9.254 0 0 0-.767.001c-.155.008-.204-.062-.229-.201-.127-.706-.595-1.173-1.29-1.295a1.758 1.758 0 0 0-.301-.018c-.934 0-1.867.029-2.8-.01-.837-.034-1.732.508-1.724 1.721.012 1.77.003 3.542.003 5.313 0 .287 0 .287-.278.287-.231 0-.464-.01-.695.003-.162.009-.199-.055-.199-.207.008-.95.004-1.901.004-2.852H4.87V3.518c.002-1.365.9-2.454 2.24-2.714A3.242 3.242 0 0 1 7.696.75c.939-.005 1.877-.007 2.817 0zm2.267 3.35c.183 0 .368-.004.55.002.216.007.326.121.33.337.003.231-.002.463.003.695.003.116-.04.157-.156.156a96.172 96.172 0 0 0-1.497 0c-.108 0-.149-.043-.145-.149.003-.231-.003-.463.004-.695.005-.234.12-.34.36-.345.183-.004.367-.001.551-.001zm-.83 1.84a162.004 162.004 0 0 0 1.656 0c.102 0 .163.036.21.128a339.652 339.652 0 0 0 1.099 2.139c.072.139-.025.117-.1.117h-4.042c-.202 0-.208-.01-.12-.181.353-.687.709-1.371 1.059-2.059.053-.104.122-.145.238-.145zm-.187 3.038c.332.009.666.002.999.002h.001c.339 0 .677.005 1.016 0 .13-.004.184.044.179.176-.008.136 0 .273-.004.41-.01.482-.319.837-.804.884-.288.028-.583.042-.87-.017a.864.864 0 0 1-.705-.847c-.003-.136.005-.274-.004-.41-.009-.145.042-.202.192-.198zm-6.226.893c.326-.002.653.005.979.036a1.15 1.15 0 0 1 1.05 1.154c.003 1.076 0 2.152 0 3.228h.001c0 1.088-.003 2.175.004 3.263 0 .172-.05.224-.222.223-.85-.008-1.7-.009-2.55 0-.171 0-.225-.05-.225-.223.007-1.367.004-2.734.004-4.102a1.52 1.52 0 0 0-.021-.283c-.033-.172-.166-.28-.324-.273-.164.008-.292.138-.305.315-.004.06-.004.119-.004.178 0 1.385-.003 2.77.004 4.155.001.178-.044.24-.227.233-.398-.016-.357.036-.357-.355v-6.116c0-.3.025-.593.194-.856a1.17 1.17 0 0 1 1.018-.559c.327-.005.654-.016.98-.018zm-1.287 1.504c-.213-.006-.326.15-.326.453v.017h.002c0 .048-.003.096 0 .143.011.19.133.322.304.333.156.01.297-.11.331-.288.012-.063.016-.129.016-.194 0-.292-.118-.46-.327-.464zm10.311.12a.323.323 0 0 0-.123.04c-.167.093-.21.282-.103.478.118.212.242.42.364.63.08.139.156.281.248.412.086.119.212.168.36.114.138-.05.203-.156.219-.297a.433.433 0 0 0-.066-.201c-.189-.33-.375-.658-.57-.984-.081-.139-.204-.205-.329-.192zm-3.617.002a.322.322 0 0 0-.283.158c-.048.075-.091.153-.135.23-.157.273-.32.544-.468.82a.318.318 0 0 0 .11.437c.139.084.323.065.413-.08a17.663 17.663 0 0 0 .648-1.127c.108-.207-.058-.437-.285-.438zm1.804.492c-.177.01-.293.133-.299.332-.004.196 0 .392 0 .588h.001c0 .202-.006.404 0 .606.005.188.12.309.29.321.18.012.324-.095.34-.289a7.549 7.549 0 0 0 0-1.263c-.015-.197-.154-.305-.332-.295z"/></g></svg>