<svg xmlns="http://www.w3.org/2000/svg" width="43" height="40" viewBox="0 0 612 612"><g opacity="0.8" clip-path="url(#clip0_69_75)"><path fill="white" d="M516.316 337.52l94.233 193.581c3.832 7.873-.196 14.314-8.952 14.314H10.402c-8.756 0-12.785-6.441-8.952-14.314L95.684 337.52c1.499-3.079 5.528-5.599 8.952-5.599h80.801c2.49 0 5.853 1.559 7.483 3.442 5.482 6.335 11.066 12.524 16.634 18.65 5.288 5.815 10.604 11.706 15.878 17.735h-95.891c-3.425 0-7.454 2.519-8.952 5.599L58.163 505.589h495.67l-62.421-128.242c-1.498-3.08-5.527-5.599-8.953-5.599h-96.108c5.273-6.029 10.591-11.92 15.879-17.735 5.585-6.144 11.2-12.321 16.695-18.658 1.628-1.878 4.984-3.434 7.47-3.434h80.971c3.423 0 7.451 2.518 8.95 5.599zm-71.775-132.292c0 105.776-88.058 125.614-129.472 227.265-3.365 8.26-14.994 8.218-18.36-.04-37.359-91.651-112.638-116.784-127.041-198.432-14.181-80.379 41.471-159.115 122.729-166.796 82.64-7.812 152.144 56.979 152.144 138.003zm-65.427 0c0-40.436-32.779-73.216-73.216-73.216s-73.216 32.78-73.216 73.216c0 40.437 32.779 73.216 73.216 73.216s73.216-32.779 73.216-73.216z"/></g></svg>