<svg width="40" height="40" viewBox="0 0 40 40" fill="none" xmlns="http://www.w3.org/2000/svg">
<g opacity="0.8">
<path d="M3.41406 38.6719C3.07813 38.6719 2.8125 38.4062 2.8125 38.0703V3.57031C2.8125 1.60156 4.41406 0 6.375 0H11.4531C11.7891 0 12.0547 0.265625 12.0547 0.601562C12.0547 0.9375 11.7891 1.20312 11.4531 1.20312H6.375C5.07031 1.20312 4.00781 2.26562 4.00781 3.57031V38.0781C4.01562 38.4062 3.74219 38.6719 3.41406 38.6719Z" fill="white"/>
<path d="M5.10938 39.2734V21.3125C5.10938 21 4.85938 20.75 4.54688 20.75H2.04688C1.73438 20.75 1.48438 21 1.48438 21.3125V39.2734C1.48438 39.5859 1.73438 39.8359 2.04688 39.8359H4.54688C4.85938 39.8359 5.10938 39.5859 5.10938 39.2734ZM23.5547 18.3906H27.8516V34.5469H23.5547V18.3906Z" fill="white"/>
<path d="M25.125 18.3906H27.8516V34.5469H25.125V18.3906Z" fill="white"/>
<path d="M33.7422 8.52344C33.7031 3.80469 30.1172 0 25.7031 0C21.2891 0 17.7031 3.80469 17.6719 8.52344C15.1797 9.25 13.3672 11.3906 13.3672 13.9219C13.3672 17.6406 17.2109 20.3594 21.1406 19.3906C21.9688 20.9375 23.7031 22.0078 25.7031 22.0078C27.7031 22.0078 29.4453 20.9375 30.2656 19.3906C34.1953 20.3594 38.0391 17.6406 38.0391 13.9219C38.0469 11.3906 36.2344 9.24219 33.7422 8.52344ZM12.25 34.7969V28.9219C12.25 28.6094 12.5 28.3594 12.8125 28.3594H13.8594C14.1719 28.3594 14.4219 28.6094 14.4219 28.9219V34.7969C14.4219 35.1094 14.1719 35.3594 13.8594 35.3594H12.8125C12.5 35.3594 12.25 35.1094 12.25 34.7969ZM28.3516 34.7969V28.9219C28.3516 28.6094 28.6016 28.3594 28.9141 28.3594H29.9609C30.2734 28.3594 30.5234 28.6094 30.5234 28.9219V34.7969C30.5234 35.1094 30.2734 35.3594 29.9609 35.3594H28.9062C28.6016 35.3594 28.3516 35.1094 28.3516 34.7969ZM12.25 39.4375V35.9219C12.25 35.6094 12.5 35.3594 12.8125 35.3594H13.8594C14.1719 35.3594 14.4219 35.6094 14.4219 35.9219V39.4375C14.4219 39.75 14.1719 40 13.8594 40H12.8125C12.5 40 12.25 39.75 12.25 39.4375ZM28.3516 39.4375V35.9219C28.3516 35.6094 28.6016 35.3594 28.9141 35.3594H29.9609C30.2734 35.3594 30.5234 35.6094 30.5234 35.9219V39.4375C30.5234 39.75 30.2734 40 29.9609 40H28.9062C28.6016 40 28.3516 39.75 28.3516 39.4375ZM8.73438 3.32031H14.1641V4.85156C14.1641 5.42969 13.6953 5.89062 13.125 5.89062H9.77344C9.19531 5.89062 8.73438 5.42188 8.73438 4.85156V3.32031Z" fill="white"/>
<path d="M8.73438 3.32031H14.1641V1.80469C14.1641 1.14063 13.625 0.601562 12.9609 0.601562H9.92969C9.26563 0.601562 8.72656 1.14063 8.72656 1.80469L8.73438 3.32031Z" fill="white"/>
<path d="M8.73438 2.71875H14.1641V1.20312C14.1719 0.539062 13.6328 0 12.9688 0H9.9375C9.27344 0 8.73438 0.539062 8.73438 1.20312V2.71875ZM33.7422 8.52344C33.7031 3.80469 30.1172 0 25.7031 0C25.2266 0 24.7578 0.046875 24.3047 0.132812C28.0547 0.835938 30.9062 4.32031 30.9375 8.52344C33.4297 9.25 35.2422 11.3906 35.2422 13.9219C35.2422 16.6094 33.2031 18.8516 30.4766 19.4375C34.3516 20.2656 38.0469 17.5625 38.0469 13.9219C38.0469 11.3906 36.2344 9.24219 33.7422 8.52344ZM29.9609 28.3672H28.9062C28.5938 28.3672 28.3437 28.6172 28.3437 28.9297V33.0938H30.5156V28.9297C30.5156 28.6172 30.2656 28.3672 29.9609 28.3672ZM13.8594 28.3672H12.8125C12.5 28.3672 12.25 28.6172 12.25 28.9297V33.0938H14.4219V28.9297C14.4219 28.6172 14.1719 28.3672 13.8594 28.3672ZM28.3516 38.2109H30.5234C30.5234 35.7031 30.5391 35.8438 30.4766 35.6875H28.4062C28.3281 35.8438 28.3516 35.7109 28.3516 38.2109ZM12.25 35.9219V38.2109H14.4219V35.9219C14.4219 35.8359 14.4062 35.7578 14.375 35.6875H12.3047C12.2656 35.7578 12.25 35.8359 12.25 35.9219Z" fill="white"/>
<path d="M32.3594 30.9453V25.2422C32.3594 24.9297 32.1094 24.6797 31.7969 24.6797H10.7422C10.4297 24.6797 10.1797 24.9297 10.1797 25.2422V30.9453C10.1797 31.2578 10.4297 31.5078 10.7422 31.5078H31.7969C32.1094 31.5 32.3594 31.25 32.3594 30.9453ZM33.4375 36.0547V34.6563C33.4375 34.3438 33.1875 34.0938 32.875 34.0938H9.66406C9.35156 34.0938 9.10156 34.3438 9.10156 34.6563V36.0547C9.10156 36.3672 9.35156 36.6172 9.66406 36.6172H32.875C33.1875 36.6172 33.4375 36.3672 33.4375 36.0547Z" fill="white"/>
<path d="M32.0234 24.6797H29.2969C29.6094 24.6797 29.8594 24.9297 29.8594 25.2422V30.9453C29.8594 31.2578 29.6094 31.5078 29.2969 31.5078H32.0234C32.3359 31.5078 32.5859 31.2578 32.5859 30.9453V25.2422C32.5859 24.9297 32.3359 24.6797 32.0234 24.6797ZM33.1016 34.1016H30.375C30.6875 34.1016 30.9375 34.3516 30.9375 34.6641V36.0625C30.9375 36.375 30.6875 36.625 30.375 36.625H33.1016C33.4141 36.625 33.6641 36.375 33.6641 36.0625V34.6641C33.6641 34.3516 33.4141 34.1016 33.1016 34.1016ZM4.77344 20.75H3.17969C3.49219 20.75 3.74219 21 3.74219 21.3125V39.2734C3.74219 39.5859 3.49219 39.8359 3.17969 39.8359H4.77344C5.08594 39.8359 5.33594 39.5859 5.33594 39.2734V21.3125C5.33594 21 5.08594 20.75 4.77344 20.75Z" fill="white"/>
</g>
</svg>
