<svg width="43" height="40" viewBox="0 0 43 40" fill="none" xmlns="http://www.w3.org/2000/svg">
<g opacity="0.8" clip-path="url(#clip0_69_75)"><path d="M7.24962 0C6.46316 0 5.83398 0.592593 5.83398 1.33333V9.18518H36.6348V1.33333C36.6348 0.592593 36.0057 0 35.2192 0H7.24962ZM22.6071 1.25253H22.8216C22.936 1.25253 23.0218 1.25253 23.079 1.26599C23.1362 1.27946 23.1791 1.29293 23.2077 1.31987C23.2363 1.3468 23.2363 1.36027 23.222 1.38721C23.2077 1.41414 23.1934 1.44108 23.1505 1.46801L22.3641 2.14141C22.3355 2.15488 22.3212 2.18182 22.2926 2.19529L22.2068 2.23569C22.1782 2.24916 22.1353 2.24916 22.0781 2.26263H21.8922C21.8064 2.26263 21.7492 2.26263 21.692 2.24916C21.6491 2.24916 21.6062 2.23569 21.5919 2.22222C21.5776 2.20875 21.5633 2.19529 21.5633 2.16835C21.5633 2.14141 21.5776 2.11448 21.6062 2.08754L22.264 1.40067L22.3498 1.31987C22.3784 1.3064 22.4213 1.27946 22.4499 1.27946C22.4928 1.26599 22.5357 1.26599 22.6071 1.25253ZM25.4384 2.47811C25.5671 2.47811 25.6958 2.49158 25.8102 2.50505C25.9246 2.51852 26.039 2.54545 26.1391 2.58586C26.2392 2.61279 26.325 2.6532 26.4108 2.6936C26.4966 2.73401 26.5538 2.77441 26.5824 2.80135C26.611 2.82828 26.6396 2.85522 26.6539 2.88215C26.6682 2.90909 26.6682 2.92256 26.6825 2.96296C26.6825 2.9899 26.6968 3.0303 26.6968 3.07071V3.40741C26.6968 3.46128 26.6825 3.48822 26.6682 3.51515C26.6539 3.54209 26.6396 3.56902 26.6253 3.58249C26.611 3.59596 26.5967 3.59596 26.5681 3.59596C26.5395 3.59596 26.4823 3.58249 26.4394 3.54209C26.3822 3.50168 26.3107 3.46128 26.2249 3.40741C26.1391 3.35354 26.039 3.31313 25.9103 3.27273C25.7959 3.23232 25.6529 3.21886 25.4813 3.21886C25.2954 3.21886 25.1381 3.25926 24.9951 3.3266C24.8521 3.39394 24.7235 3.50168 24.6234 3.6229C24.5233 3.75758 24.4518 3.90572 24.3946 4.09428C24.3374 4.28283 24.3231 4.48485 24.3231 4.72727C24.3231 4.98316 24.3517 5.19865 24.4089 5.38721C24.4661 5.57576 24.5376 5.72391 24.652 5.84512C24.7521 5.96633 24.8807 6.06061 25.0237 6.11448C25.1667 6.16835 25.3383 6.20875 25.5099 6.20875C25.6815 6.20875 25.8245 6.19529 25.9389 6.15488C26.0533 6.11448 26.1677 6.07407 26.2535 6.03367C26.3393 5.99327 26.4108 5.95286 26.468 5.91246C26.5252 5.87205 26.5681 5.85859 26.5967 5.85859C26.6253 5.85859 26.6396 5.85859 26.6539 5.87205C26.6682 5.88552 26.6825 5.89899 26.6825 5.92593C26.6825 5.95286 26.6968 5.99327 26.6968 6.03367C26.6968 6.07407 26.7111 6.16835 26.7111 6.24916V6.39731C26.7111 6.43771 26.6968 6.46465 26.6968 6.49158C26.6968 6.51852 26.6825 6.54545 26.6682 6.55892C26.6539 6.57239 26.6396 6.59933 26.611 6.62626C26.5824 6.6532 26.5395 6.68014 26.4537 6.72054C26.3822 6.76094 26.2821 6.80135 26.182 6.84175C26.0676 6.88215 25.9532 6.90909 25.8102 6.93603C25.6672 6.96296 25.5242 6.97643 25.3526 6.97643C25.038 6.97643 24.7521 6.93603 24.4947 6.84175C24.2373 6.74747 24.0228 6.61279 23.8512 6.42424C23.6796 6.23569 23.5366 6.0202 23.4365 5.73737C23.3364 5.46801 23.2935 5.14478 23.2935 4.78114C23.2935 4.41751 23.3507 4.08081 23.4508 3.79798C23.5509 3.51515 23.7082 3.27273 23.8941 3.07071C24.08 2.86869 24.3088 2.73401 24.5662 2.62626C24.8236 2.51852 25.1238 2.47811 25.4384 2.47811ZM15.5576 2.50505C15.9007 2.50505 16.2153 2.54545 16.487 2.63973C16.7587 2.72054 16.9732 2.85522 17.1591 3.04377C17.345 3.21886 17.4737 3.44781 17.5595 3.73064C17.6596 3.98653 17.7025 4.30976 17.7025 4.68687C17.7025 5.05051 17.6596 5.37374 17.5595 5.65657C17.4594 5.93939 17.3164 6.18182 17.1305 6.38384C16.9446 6.58586 16.7158 6.73401 16.4298 6.84175C16.1581 6.94949 15.8292 7.00337 15.4718 7.00337C15.1143 7.00337 14.7997 6.96296 14.528 6.86869C14.2563 6.77441 14.0418 6.63973 13.8559 6.46465C13.67 6.28956 13.5413 6.04714 13.4555 5.77778C13.3698 5.49495 13.3269 5.17172 13.3269 4.78114C13.3269 4.43098 13.3698 4.10774 13.4698 3.83838C13.5699 3.55556 13.7129 3.31313 13.8988 3.12458C14.0847 2.92256 14.3135 2.77441 14.5995 2.66667C14.8712 2.55892 15.2001 2.50505 15.5576 2.50505ZM10.0094 2.55892H11.0962C11.2105 2.55892 11.3106 2.55892 11.4107 2.57239C11.5108 2.58586 11.6252 2.59933 11.7682 2.62626C11.9112 2.6532 12.0399 2.6936 12.1829 2.77441C12.3259 2.84175 12.4403 2.93603 12.5404 3.04377C12.6405 3.15152 12.712 3.27273 12.7692 3.42088C12.8121 3.55556 12.8407 3.71717 12.8407 3.89226C12.8407 4.13468 12.7978 4.35017 12.7263 4.53872C12.6405 4.72727 12.5261 4.88889 12.3688 5.0101C12.2115 5.14478 12.0256 5.23906 11.7968 5.3064C11.568 5.37374 11.3106 5.40067 11.0104 5.40067H10.6243V6.78788C10.6243 6.81482 10.61 6.82828 10.5957 6.84175C10.5814 6.85522 10.5528 6.86869 10.5242 6.88215C10.4956 6.89562 10.4384 6.89562 10.3812 6.90909C10.324 6.90909 10.2525 6.92256 10.1524 6.92256C10.0666 6.92256 9.9808 6.92256 9.92361 6.90909C9.86641 6.90909 9.80921 6.89562 9.78061 6.88215C9.75201 6.86869 9.72341 6.85522 9.70911 6.84175C9.69482 6.82828 9.69482 6.80135 9.69482 6.78788V2.88215C9.69482 2.77441 9.72341 2.6936 9.78061 2.63973C9.83781 2.58586 9.90931 2.55892 10.0094 2.55892ZM18.9465 2.55892C19.0323 2.55892 19.1181 2.55892 19.1753 2.57239C19.2325 2.57239 19.2754 2.58586 19.3183 2.59933C19.3469 2.61279 19.3755 2.62626 19.3898 2.63973C19.4041 2.6532 19.4184 2.68013 19.4184 2.6936V6.18182H20.8769C20.9055 6.18182 20.9198 6.18182 20.9341 6.19529C20.9484 6.20875 20.9627 6.22222 20.977 6.24916C20.9913 6.27609 20.9913 6.3165 21.0056 6.3569C21.0199 6.41077 21.0199 6.47811 21.0199 6.54545C21.0199 6.61279 21.0199 6.66667 21.0056 6.72054C20.9913 6.77441 20.9913 6.80135 20.977 6.82828C20.9627 6.85522 20.9484 6.88216 20.9341 6.89562C20.9198 6.90909 20.8912 6.90909 20.8769 6.90909H18.7606C18.6891 6.90909 18.6176 6.88215 18.5604 6.84175C18.5032 6.80135 18.4746 6.72054 18.4746 6.62626V2.6936C18.4746 2.66667 18.4889 2.6532 18.5032 2.63973C18.5175 2.62626 18.5461 2.61279 18.5747 2.59933C18.6033 2.58586 18.6605 2.58586 18.7177 2.57239C18.7749 2.57239 18.8607 2.55892 18.9465 2.55892ZM22.0495 2.55892C22.1353 2.55892 22.2211 2.55892 22.2783 2.57239C22.3355 2.57239 22.3784 2.58586 22.4213 2.59933C22.4499 2.61279 22.4785 2.62626 22.4928 2.63973C22.5071 2.6532 22.5214 2.68013 22.5214 2.6936V6.78788C22.5214 6.81482 22.5071 6.82828 22.4928 6.84175C22.4785 6.85522 22.4499 6.86869 22.4213 6.88215C22.3784 6.89562 22.3355 6.89562 22.2783 6.90909C22.2211 6.90909 22.1496 6.92256 22.0495 6.92256C21.9637 6.92256 21.8779 6.92256 21.8207 6.90909C21.7635 6.90909 21.7063 6.89562 21.6777 6.88215C21.6348 6.86869 21.6205 6.85522 21.6062 6.84175C21.5919 6.82828 21.5776 6.80135 21.5776 6.78788V2.6936C21.5776 2.66667 21.5919 2.6532 21.6062 2.63973C21.6205 2.62626 21.6491 2.61279 21.6777 2.59933C21.7206 2.58586 21.7635 2.58586 21.8207 2.57239C21.8779 2.55892 21.9494 2.55892 22.0495 2.55892ZM27.855 2.55892C27.9408 2.55892 28.0266 2.55892 28.0838 2.57239C28.141 2.57239 28.1839 2.58586 28.2268 2.59933C28.2554 2.61279 28.284 2.62626 28.2983 2.63973C28.3126 2.6532 28.3269 2.68013 28.3269 2.6936V6.78788C28.3269 6.81482 28.3126 6.82828 28.2983 6.84175C28.284 6.85522 28.2554 6.86869 28.2268 6.88215C28.1839 6.89562 28.141 6.89562 28.0838 6.90909C28.0266 6.90909 27.9551 6.92256 27.855 6.92256C27.7692 6.92256 27.6834 6.92256 27.6262 6.90909C27.569 6.90909 27.5118 6.89562 27.4832 6.88215C27.4403 6.86869 27.426 6.85522 27.4117 6.84175C27.3974 6.82828 27.3831 6.80135 27.3831 6.78788V2.6936C27.3831 2.66667 27.3974 2.6532 27.4117 2.63973C27.426 2.62626 27.4546 2.61279 27.4832 2.59933C27.5261 2.58586 27.569 2.58586 27.6262 2.57239C27.6834 2.55892 27.7549 2.55892 27.855 2.55892ZM30.7006 2.55892H31.3155C31.4013 2.55892 31.4585 2.57239 31.5157 2.58586C31.5586 2.59933 31.6015 2.61279 31.6158 2.63973C31.6301 2.66667 31.6586 2.6936 31.6729 2.73401L33.1029 6.58586C33.1315 6.66667 33.1458 6.73401 33.1601 6.77441C33.1744 6.81481 33.1601 6.85522 33.1315 6.88215C33.1029 6.90909 33.06 6.92256 32.9885 6.92256C32.917 6.92256 32.8312 6.93603 32.7168 6.93603H32.4308C32.3593 6.93603 32.3164 6.92256 32.2735 6.92256C32.2306 6.90909 32.2163 6.89562 32.202 6.88215C32.1877 6.86869 32.1734 6.84175 32.1734 6.81481L31.8588 5.93939H30.1286L29.8426 6.78788L29.7997 6.86869C29.7854 6.89562 29.7568 6.90909 29.7282 6.92256C29.6996 6.93603 29.6424 6.94949 29.5852 6.94949H29.3422C29.2278 6.94949 29.142 6.9495 29.0848 6.93603C29.0276 6.93603 28.9847 6.90909 28.9561 6.88215C28.9275 6.85522 28.9275 6.81481 28.9275 6.77441C28.9275 6.73401 28.9561 6.66667 28.9847 6.58586L30.4003 2.73401C30.4146 2.6936 30.4289 2.66667 30.4432 2.63973C30.4575 2.61279 30.4861 2.59933 30.529 2.58586C30.5719 2.57239 30.6291 2.57239 30.7006 2.55892ZM15.529 3.21886C15.3002 3.21886 15.1 3.25926 14.957 3.34007C14.7997 3.42088 14.671 3.52862 14.5852 3.6633C14.4851 3.79798 14.4279 3.9596 14.385 4.13468C14.3421 4.32323 14.3278 4.51178 14.3278 4.7138C14.3278 4.95623 14.3421 5.15825 14.385 5.3468C14.4279 5.53535 14.4851 5.69697 14.5709 5.83165C14.6567 5.96633 14.7854 6.07407 14.9284 6.14141C15.0857 6.20875 15.2716 6.24916 15.5004 6.24916C15.7292 6.24916 15.9293 6.20875 16.0723 6.12795C16.2296 6.04714 16.3583 5.93939 16.4441 5.80471C16.5442 5.67003 16.6014 5.50842 16.6443 5.31987C16.7015 5.14478 16.7301 4.94276 16.7301 4.74074C16.7301 4.51178 16.7158 4.30976 16.6729 4.12121C16.63 3.93266 16.5728 3.77104 16.4727 3.63636C16.3869 3.50168 16.2582 3.39394 16.1009 3.3266C15.9436 3.25926 15.7577 3.21886 15.529 3.21886ZM10.61 3.24579V4.7138H11.0247C11.1676 4.7138 11.2963 4.70034 11.3964 4.65993C11.4965 4.61953 11.5823 4.56566 11.6395 4.49832C11.6967 4.43098 11.7539 4.35017 11.7825 4.25589C11.8397 4.16162 11.854 4.06734 11.854 3.94613C11.854 3.79798 11.8254 3.6633 11.7682 3.56902C11.711 3.47475 11.6395 3.39394 11.5537 3.35354C11.4679 3.31313 11.3821 3.27273 11.2963 3.25926C11.2105 3.24579 11.1105 3.24579 11.0104 3.24579H10.61ZM30.9866 3.39394L30.3288 5.23906H31.6301L30.9866 3.39394ZM5.83398 11.0438V38.6667C5.83398 39.4074 6.46316 40 7.24962 40H17.917V32.0808C17.917 31.569 18.3602 31.1515 18.9036 31.1515H23.5652C24.1086 31.1515 24.5519 31.569 24.5519 32.0808V40H35.2192C36.0057 40 36.6348 39.4074 36.6348 38.6667V11.0438H5.83398ZM11.9112 13.5488H16.5728C17.1162 13.5488 17.5595 13.9663 17.5595 14.4781V18.8687C17.5595 19.3805 17.1162 19.798 16.5728 19.798H11.9112C11.3678 19.798 10.9246 19.3805 10.9246 18.8687V14.4781C10.9246 13.9663 11.3678 13.5488 11.9112 13.5488ZM25.896 13.5488H30.5576C31.101 13.5488 31.5443 13.9663 31.5443 14.4781V18.8687C31.5443 19.3805 31.101 19.798 30.5576 19.798H25.896C25.3526 19.798 24.9093 19.3805 24.9093 18.8687V14.4781C24.9093 13.9663 25.3526 13.5488 25.896 13.5488ZM12.8979 15.4074V17.9394H15.5862V15.4074H12.8979ZM26.8827 15.4074V17.9394H29.5709V15.4074H26.8827ZM11.9112 22.3704H16.5728C17.1162 22.3704 17.5595 22.7879 17.5595 23.2997V27.6902C17.5595 28.202 17.1162 28.6195 16.5728 28.6195H11.9112C11.3678 28.6195 10.9246 28.202 10.9246 27.6902V23.2997C10.9246 22.7879 11.3678 22.3704 11.9112 22.3704ZM25.896 22.3704H30.5576C31.101 22.3704 31.5443 22.7879 31.5443 23.2997V27.6902C31.5443 28.202 31.101 28.6195 30.5576 28.6195H25.896C25.3526 28.6195 24.9093 28.202 24.9093 27.6902V23.2997C24.9093 22.7879 25.3526 22.3704 25.896 22.3704ZM12.8979 24.229V26.7609H15.5862V24.229H12.8979ZM19.8903 33.0101V40H22.5785V33.0101H19.8903Z" fill="white"/>
<path d="M26.8828 24.229H29.5711V26.761H26.8828V24.229Z" fill="white" fill-opacity="0.701961"/></g>
</svg>
