<svg width="40" height="40" viewBox="0 0 40 40" fill="none" xmlns="http://www.w3.org/2000/svg">
<g opacity="0.8" clip-path="url(#clip0_69_75)">
<path d="M14.9326 7.15625L8.75417 13.3333H1.66667C0.745833 13.3333 0 14.0792 0 15V25C0 25.9201 0.745833 26.6667 1.66667 26.6667H8.75417L14.9326 32.8437C15.9764 33.8875 17.7778 33.1542 17.7778 31.6653V8.33472C17.7778 6.84444 15.975 6.11389 14.9326 7.15625ZM31.1354 3.60902C30.3597 3.1 29.3174 3.31458 28.8083 4.09166C28.2986 4.86736 28.5153 5.90972 29.291 6.41875C33.8931 9.43889 36.6396 14.516 36.6396 20.0007C36.6396 25.4854 33.8931 30.5625 29.291 33.5826C28.5153 34.091 28.2986 35.134 28.8083 35.909C29.2972 36.6528 30.3313 36.9201 31.1354 36.3917C36.6854 32.7486 40 26.6201 40 20C40 13.3799 36.6854 7.25208 31.1354 3.60902ZM33.3333 20C33.3333 15.5882 31.1069 11.5319 27.3771 9.15C26.6 8.65416 25.5694 8.88472 25.0771 9.66805C24.5847 10.4514 24.8146 11.4882 25.5917 11.9847C28.3521 13.7479 30 16.7437 30 20C30 23.2562 28.3521 26.2521 25.5917 28.0153C24.8146 28.5111 24.5847 29.5479 25.0771 30.3319C25.5292 31.0514 26.5438 31.3833 27.3771 30.85C31.1069 28.4681 33.3333 24.4125 33.3333 20ZM23.4882 14.6618C22.684 14.2222 21.6694 14.5118 21.2236 15.3181C20.7799 16.1243 21.0736 17.1375 21.8799 17.5826C22.7764 18.075 23.3333 19.0021 23.3333 20C23.3333 20.9986 22.7764 21.925 21.8806 22.4174C21.0743 22.8625 20.7806 23.8757 21.2243 24.6819C21.6708 25.4917 22.6861 25.7792 23.4889 25.3382C25.4493 24.2583 26.6674 22.2132 26.6674 19.9993C26.6674 17.7854 25.4493 15.741 23.4882 14.6618Z" fill="black"/>
</g>
<defs>
<clipPath id="clip0_69_75">
<rect width="40" height="40" fill="white"/>
</clipPath>
</defs>
</svg>
