<svg width="40" height="40" viewBox="0 0 40 40" fill="none" xmlns="http://www.w3.org/2000/svg">
<g opacity="0.8" clip-path="url(#clip0_69_33)">
<path d="M36.25 2.50001H26.875L26.1406 1.03908C25.9851 0.726743 25.7454 0.464016 25.4487 0.28045C25.1519 0.0968842 24.8099 -0.00023656 24.4609 1.36974e-05H15.5312C15.1831 -0.00132463 14.8416 0.095434 14.5459 0.279204C14.2503 0.462974 14.0123 0.726322 13.8594 1.03908L13.125 2.50001H3.75C3.41848 2.50001 3.10054 2.63171 2.86612 2.86613C2.6317 3.10055 2.5 3.41849 2.5 3.75001L2.5 6.25001C2.5 6.58153 2.6317 6.89948 2.86612 7.1339C3.10054 7.36832 3.41848 7.50001 3.75 7.50001H36.25C36.5815 7.50001 36.8995 7.36832 37.1339 7.1339C37.3683 6.89948 37.5 6.58153 37.5 6.25001V3.75001C37.5 3.41849 37.3683 3.10055 37.1339 2.86613C36.8995 2.63171 36.5815 2.50001 36.25 2.50001ZM6.65625 36.4844C6.71587 37.4364 7.13606 38.33 7.83129 38.9831C8.52653 39.6362 9.44453 39.9999 10.3984 40H29.6016C30.5555 39.9999 31.4735 39.6362 32.1687 38.9831C32.8639 38.33 33.2841 37.4364 33.3438 36.4844L35 10H5L6.65625 36.4844Z" fill="white"/>
</g>
<defs>
<clipPath id="clip0_69_33">
<rect width="40" height="40" fill="white"/>
</clipPath>
</defs>
</svg>
