<svg width="40" height="40" viewBox="0 0 40 40" fill="none" xmlns="http://www.w3.org/2000/svg">
<g opacity="0.8" clip-path="url(#clip0_69_66)">
<path d="M34.5556 29.5696L28.3142 22.5001H30.7072C31.4111 22.5001 32.0337 22.1095 32.3306 21.4798C32.6275 20.8517 32.5298 20.1313 32.0744 19.6009L25.9705 12.5001H28.2275C28.9384 12.5001 29.579 12.0821 29.8572 11.4368C30.1322 10.8017 30.0025 10.0626 29.5259 9.55556L20.9111 0.377441C20.44 -0.126465 19.5611 -0.126465 19.0892 0.377441L10.4736 9.55556C9.99701 10.0626 9.86811 10.8017 10.1423 11.4368C10.4205 12.0821 11.0619 12.5001 11.7728 12.5001H14.0298L7.92514 19.6024C7.47123 20.1321 7.37358 20.8517 7.66967 21.4806C7.96655 22.1095 8.58842 22.5001 9.29311 22.5001H11.6861L5.44467 29.5696C4.97592 30.1001 4.86967 30.8267 5.16655 31.4649C5.45952 32.0938 6.10405 32.5001 6.80795 32.5001H17.5001V34.4103L15.1337 38.1915C14.7181 39.0228 15.3228 40.0009 16.2517 40.0009H23.7486C24.6775 40.0009 25.2822 39.0228 24.8665 38.1915L22.5001 34.4103V32.5001H33.1923C33.8962 32.5001 34.5408 32.0938 34.8337 31.4649C35.1306 30.8267 35.0244 30.1001 34.5556 29.5696Z" fill="white"/>
</g>
<defs>
<clipPath id="clip0_69_66">
<rect width="40" height="40" fill="white"/>
</clipPath>
</defs>
</svg>
