<svg width="40" height="40" viewBox="0 0 40 40" fill="none" xmlns="http://www.w3.org/2000/svg">
<path d="M15 16.25C15 14.8695 13.8805 13.75 12.5 13.75H11.25C8.48828 13.75 6.25 15.9883 6.25 18.75V22.5C6.25 25.2617 8.48828 27.5 11.25 27.5H12.5C13.8805 27.5 15 26.3805 15 25V16.25ZM28.75 27.5C31.5117 27.5 33.75 25.2617 33.75 22.5V18.75C33.75 15.9883 31.5117 13.75 28.75 13.75H27.5C26.1195 13.75 25 14.8695 25 16.25V25C25 26.3805 26.1195 27.5 27.5 27.5H28.75ZM20 0C8.84219 0 0.357812 9.28359 0 20V21.25C0 21.9406 0.559375 22.5 1.25 22.5H2.5C3.19062 22.5 3.75 21.9406 3.75 21.25V20C3.75 11.0398 11.0398 3.75 20 3.75C28.9602 3.75 36.25 11.0398 36.25 20H36.2406C36.2469 20.1898 36.25 32.9469 36.25 32.9469C36.25 34.7711 34.7711 36.25 32.9469 36.25H25C25 34.1789 23.3211 32.5 21.25 32.5H18.75C16.6789 32.5 15 34.1789 15 36.25C15 38.3211 16.6789 40 18.75 40H32.9469C36.8422 40 40 36.8422 40 32.9469V20C39.6422 9.28359 31.1578 0 20 0Z" fill="#267D0D"/>
</svg>
