<svg width="15" height="12" viewBox="0 0 15 12" fill="none" xmlns="http://www.w3.org/2000/svg">
<path d="M12.1875 11.25H9.72656C9.5332 11.25 9.375 11.0918 9.375 10.8984V9.72656C9.375 9.5332 9.5332 9.375 9.72656 9.375H12.1875C12.7061 9.375 13.125 8.95605 13.125 8.4375V2.8125C13.125 2.29395 12.7061 1.875 12.1875 1.875H9.72656C9.5332 1.875 9.375 1.7168 9.375 1.52344V0.351562C9.375 0.158203 9.5332 0 9.72656 0H12.1875C13.7402 0 15 1.25977 15 2.8125V8.4375C15 9.99023 13.7402 11.25 12.1875 11.25ZM10.8105 5.36133L5.88867 0.439453C5.44922 0 4.6875 0.307617 4.6875 0.9375V3.75H0.703125C0.313477 3.75 0 4.06348 0 4.45312V7.26562C0 7.65527 0.313477 7.96875 0.703125 7.96875H4.6875V10.7812C4.6875 11.4111 5.44922 11.7188 5.88867 11.2793L10.8105 6.35742C11.083 6.08203 11.083 5.63672 10.8105 5.36133Z" fill="#FCFCFC"/>
</svg>
