<svg width="30" height="30" viewBox="0 0 30 30" fill="none" xmlns="http://www.w3.org/2000/svg">
<path d="M1.875 27.1875C1.875 28.7402 3.13477 30 4.6875 30H25.3125C26.8652 30 28.125 28.7402 28.125 27.1875V11.25H1.875V27.1875ZM20.625 15.7031C20.625 15.3164 20.9414 15 21.3281 15H23.6719C24.0586 15 24.375 15.3164 24.375 15.7031V18.0469C24.375 18.4336 24.0586 18.75 23.6719 18.75H21.3281C20.9414 18.75 20.625 18.4336 20.625 18.0469V15.7031ZM20.625 23.2031C20.625 22.8164 20.9414 22.5 21.3281 22.5H23.6719C24.0586 22.5 24.375 22.8164 24.375 23.2031V25.5469C24.375 25.9336 24.0586 26.25 23.6719 26.25H21.3281C20.9414 26.25 20.625 25.9336 20.625 25.5469V23.2031ZM13.125 15.7031C13.125 15.3164 13.4414 15 13.8281 15H16.1719C16.5586 15 16.875 15.3164 16.875 15.7031V18.0469C16.875 18.4336 16.5586 18.75 16.1719 18.75H13.8281C13.4414 18.75 13.125 18.4336 13.125 18.0469V15.7031ZM13.125 23.2031C13.125 22.8164 13.4414 22.5 13.8281 22.5H16.1719C16.5586 22.5 16.875 22.8164 16.875 23.2031V25.5469C16.875 25.9336 16.5586 26.25 16.1719 26.25H13.8281C13.4414 26.25 13.125 25.9336 13.125 25.5469V23.2031ZM5.625 15.7031C5.625 15.3164 5.94141 15 6.32812 15H8.67188C9.05859 15 9.375 15.3164 9.375 15.7031V18.0469C9.375 18.4336 9.05859 18.75 8.67188 18.75H6.32812C5.94141 18.75 5.625 18.4336 5.625 18.0469V15.7031ZM5.625 23.2031C5.625 22.8164 5.94141 22.5 6.32812 22.5H8.67188C9.05859 22.5 9.375 22.8164 9.375 23.2031V25.5469C9.375 25.9336 9.05859 26.25 8.67188 26.25H6.32812C5.94141 26.25 5.625 25.9336 5.625 25.5469V23.2031ZM25.3125 3.75H22.5V0.9375C22.5 0.421875 22.0781 0 21.5625 0H19.6875C19.1719 0 18.75 0.421875 18.75 0.9375V3.75H11.25V0.9375C11.25 0.421875 10.8281 0 10.3125 0H8.4375C7.92188 0 7.5 0.421875 7.5 0.9375V3.75H4.6875C3.13477 3.75 1.875 5.00977 1.875 6.5625V9.375H28.125V6.5625C28.125 5.00977 26.8652 3.75 25.3125 3.75Z" fill="#267D0D"/>
</svg>
