<svg width="30" height="27" viewBox="0 0 30 27" fill="none" xmlns="http://www.w3.org/2000/svg">
<path d="M29.6624 22.9173C30.6237 24.5837 29.417 26.6667 27.4969 26.6667H2.50283C0.579025 26.6667 -0.62212 24.5805 0.337359 22.9173L12.8345 1.24922C13.7964 -0.417916 16.2054 -0.414896 17.1655 1.24922L29.6624 22.9173ZM15 18.4375C13.6768 18.4375 12.6042 19.5102 12.6042 20.8333C12.6042 22.1565 13.6768 23.2292 15 23.2292C16.3232 23.2292 17.3958 22.1565 17.3958 20.8333C17.3958 19.5102 16.3232 18.4375 15 18.4375ZM12.7254 9.82573L13.1117 16.9091C13.1298 17.2405 13.4039 17.5 13.7358 17.5H16.2642C16.5962 17.5 16.8702 17.2405 16.8883 16.9091L17.2746 9.82573C17.2942 9.46771 17.0091 9.16666 16.6506 9.16666H13.3494C12.9908 9.16666 12.7058 9.46771 12.7254 9.82573Z" fill="#267D0D"/>
</svg>
