<svg width="30" height="30" viewBox="0 0 30 30" fill="none" xmlns="http://www.w3.org/2000/svg">
<path d="M24.8438 0H5.15625C4.37959 0 3.75 0.62959 3.75 1.40625V2.34375C3.75 3.12041 4.37959 3.75 5.15625 3.75C5.15625 9.07998 8.14547 13.5782 12.2368 15C8.14547 16.4218 5.15625 20.92 5.15625 26.25C4.37959 26.25 3.75 26.8796 3.75 27.6562V28.5938C3.75 29.3704 4.37959 30 5.15625 30H24.8438C25.6204 30 26.25 29.3704 26.25 28.5938V27.6562C26.25 26.8796 25.6204 26.25 24.8438 26.25C24.8438 20.92 21.8545 16.4218 17.7632 15C21.8545 13.5782 24.8438 9.07998 24.8438 3.75C25.6204 3.75 26.25 3.12041 26.25 2.34375V1.40625C26.25 0.62959 25.6204 0 24.8438 0ZM20.4446 22.5H9.55547C10.555 19.758 12.608 17.8125 15 17.8125C17.3919 17.8125 19.445 19.7576 20.4446 22.5ZM20.4458 7.5H9.55535C9.13992 6.36023 8.90625 5.08289 8.90625 3.75H21.0938C21.0938 5.08623 20.8601 6.36252 20.4458 7.5Z" fill="#267D0D"/>
</svg>
