<svg width="30" height="31" viewBox="0 0 30 31" fill="none" xmlns="http://www.w3.org/2000/svg">
<path d="M15 15.5C19.7344 15.5 23.5714 12.0307 23.5714 7.75C23.5714 3.46934 19.7344 0 15 0C10.2656 0 6.42857 3.46934 6.42857 7.75C6.42857 12.0307 10.2656 15.5 15 15.5ZM21 17.4375H19.8817C18.3951 18.0551 16.7411 18.4062 15 18.4062C13.2589 18.4062 11.6116 18.0551 10.1183 17.4375H9C4.03125 17.4375 0 21.0824 0 25.575V28.0938C0 29.6982 1.43973 31 3.21429 31H26.7857C28.5603 31 30 29.6982 30 28.0938V25.575C30 21.0824 25.9688 17.4375 21 17.4375Z" fill="#267D0D"/>
</svg>
